G04 ================== begin FILE IDENTIFICATION RECORD ==================*
G04 Layout Name:  G:/Cadence Allegro/My_Prj/ADF4351/ADF4351_PCB_Finish.brd*
G04 Film Name:    01_TOP*
G04 File Format:  Gerber RS274X*
G04 File Origin:  Cadence Allegro 16.6-2015-S108*
G04 Origin Date:  Tue Feb 19 09:10:30 2019*
G04 *
G04 Layer:  BOARD GEOMETRY/OUTLINE*
G04 Layer:  ETCH/TOP*
G04 Layer:  PIN/TOP*
G04 Layer:  VIA CLASS/TOP*
G04 *
G04 Offset:    (0.00 0.00)*
G04 Mirror:    No*
G04 Mode:      Positive*
G04 Rotation:  0*
G04 FullContactRelief:  No*
G04 UndefLineWidth:     6.00*
G04 ================== end FILE IDENTIFICATION RECORD ====================*
%FSLAX25Y25*MOIN*%
%IR0*IPPOS*OFA0.00000B0.00000*MIA0B0*SFA1.00000B1.00000*%
%AMMACRO28*
21,1,.036,.031,0.0,0.0,135.*%
%ADD28MACRO28*%
%AMMACRO27*
21,1,.035,.032,0.0,0.0,135.*%
%ADD27MACRO27*%
%ADD10C,.022*%
%ADD11C,.063*%
%AMMACRO31*
21,1,.0315,.0315,0.0,0.0,45.*%
%ADD31MACRO31*%
%ADD20R,.0315X.0315*%
%ADD16C,.0709*%
%ADD12R,.063X.063*%
%ADD22R,.0236X.0098*%
%ADD26O,.0098X.0394*%
%ADD25O,.0394X.0098*%
%ADD32R,.1598X.0598*%
%AMMACRO30*
21,1,.036,.031,0.0,0.0,45.*%
%ADD30MACRO30*%
%AMMACRO29*
21,1,.035,.032,0.0,0.0,45.*%
%ADD29MACRO29*%
%ADD21R,.032X.035*%
%ADD18R,.031X.036*%
%ADD19R,.035X.032*%
%ADD15R,.036X.031*%
%ADD24R,.122X.122*%
%ADD17R,.0551X.0472*%
%ADD13R,.0512X.0709*%
%ADD23R,.0295X.0472*%
%ADD14R,.0366X.0374*%
%ADD33C,.01*%
%ADD34C,.02*%
%ADD35C,.012*%
%ADD36C,.03*%
%ADD37C,.04*%
%ADD38C,.015*%
%ADD39C,.006*%
%ADD41C,.03404*%
%ADD40C,.08094*%
G75*
%LPD*%
G75*
G36*
G01X2001Y2001D02*
Y116109D01*
X194849D01*
Y2001D01*
X2001D01*
G37*
%LPC*%
G75*
G36*
G01X126602Y91998D02*
Y91748D01*
X120398D01*
Y91998D01*
X118378D01*
X116498Y93878D01*
Y94948D01*
X116348D01*
Y101492D01*
X121712D01*
Y100301D01*
G03X122394Y100018I400J0D01*
G01X123378Y101002D01*
X129622D01*
X131002Y99622D01*
Y93378D01*
X129622Y91998D01*
X126602D01*
G37*
G36*
G01X56122Y111002D02*
X58502Y108622D01*
Y99091D01*
G03X59184Y98808I400J0D01*
G01X59878Y99502D01*
X64448D01*
Y111952D01*
X70548D01*
Y112052D01*
X77152D01*
Y105948D01*
X76352D01*
Y103894D01*
X75152Y102694D01*
Y94448D01*
X75002D01*
Y92878D01*
X73122Y90998D01*
X59878D01*
X58954Y91923D01*
X58546D01*
X55622Y88998D01*
X33162D01*
Y88797D01*
X33152Y88787D01*
Y87052D01*
X33952D01*
Y80948D01*
X21048D01*
Y81498D01*
X19942D01*
Y80628D01*
X13278D01*
Y87372D01*
X19942D01*
Y86502D01*
X21048D01*
Y87052D01*
X28148D01*
Y88954D01*
X22538D01*
Y89838D01*
X20498Y91878D01*
Y108122D01*
X23378Y111002D01*
X25594D01*
G02X26930Y110453I-1J-1902D01*
G02X29770I1420J-4843D01*
G02X31106Y111002I1337J-1353D01*
G01X56122D01*
G37*
G36*
G01X92122Y91498D02*
X80878D01*
X79000Y93376D01*
Y94448D01*
X78848D01*
Y100992D01*
X84212D01*
Y99801D01*
G03X84894Y99518I400J0D01*
G01X85878Y100502D01*
X92122D01*
X93000Y99623D01*
X93878Y100502D01*
X100622D01*
X101266Y99858D01*
G03X101948Y100141I282J283D01*
G01Y112452D01*
X108048D01*
Y112552D01*
X114652D01*
Y106448D01*
X113852D01*
Y104394D01*
X112652Y103194D01*
Y94948D01*
X112502D01*
Y93378D01*
X110622Y91498D01*
X93878D01*
X93000Y92377D01*
X92122Y91498D01*
G37*
G36*
G01X45652Y3448D02*
X39048D01*
Y4498D01*
X16171D01*
X10998Y9671D01*
Y9965D01*
X10747D01*
X10701Y9940D01*
G02X5498Y13000I-1702J3060D01*
G01Y64500D01*
G02X12502I3502J0D01*
G01Y23298D01*
G03X13184Y23015I400J0D01*
G01X13615Y23446D01*
G02X21642Y27895I4385J1555D01*
G03X22237Y27861I313J249D01*
G01X22534Y28157D01*
G03X22392Y28498I-142J141D01*
G01X21671D01*
X19554Y30615D01*
G02X22385Y33446I-1554J4385D01*
G01X23329Y32502D01*
X23927D01*
Y32752D01*
X23903Y32796D01*
G02X24011Y37393I4097J2204D01*
G03X23668Y37998I-343J205D01*
G01X22171D01*
X19554Y40615D01*
G02X22424Y43561I-1554J4385D01*
G01X22386Y43445D01*
X23829Y42002D01*
X24236D01*
Y42265D01*
X24200Y42317D01*
G02X24011Y47393I3800J2683D01*
G03X23668Y47998I-343J205D01*
G01X22171D01*
X19821Y50348D01*
X13348D01*
Y59652D01*
X22652D01*
Y53179D01*
X23829Y52002D01*
X24891D01*
G03X25198Y52658I0J400D01*
G02X30802I2802J2342D01*
G03X31109Y52002I307J-256D01*
G01X33329D01*
X34829Y50502D01*
X39048D01*
Y51552D01*
X51952D01*
Y50752D01*
X53000D01*
G02X55193Y47992I0J-2251D01*
G03X55583Y47502I390J-90D01*
G01X73171D01*
X75585Y49915D01*
G02X78798Y49378I1415J-1415D01*
G03X79441Y49271I360J176D01*
G01X81885Y51715D01*
G03X81602Y52398I-283J283D01*
G01X70052D01*
Y51848D01*
X63948D01*
Y52398D01*
X51748D01*
Y52448D01*
X39048D01*
Y55500D01*
X39000D01*
Y59338D01*
X38083D01*
Y67062D01*
X46744D01*
Y73362D01*
X55256D01*
Y67062D01*
X55257D01*
Y66500D01*
X56748D01*
Y71602D01*
X56924D01*
Y83606D01*
X63076D01*
Y83032D01*
X66000D01*
G02Y78028I0J-2502D01*
G01X63076D01*
Y71602D01*
X63252D01*
Y59398D01*
X63000D01*
Y58602D01*
X64252D01*
Y58452D01*
X69748D01*
Y58602D01*
X82252D01*
Y58122D01*
X92498D01*
Y66998D01*
X85829D01*
X83002Y64171D01*
Y63271D01*
X82452Y62721D01*
Y59448D01*
X69548D01*
Y65552D01*
X69558D01*
Y72372D01*
X76222D01*
Y65552D01*
X78998D01*
Y65829D01*
X84171Y71002D01*
X84909D01*
G03X85192Y71684I0J400D01*
G01X83998Y72878D01*
Y78122D01*
X85378Y79502D01*
X95622D01*
X96500Y78623D01*
X97378Y79502D01*
X107622D01*
X108202Y78922D01*
X108448Y79024D01*
Y79152D01*
X114398D01*
Y79252D01*
X115628D01*
X115878Y79502D01*
X125622D01*
X127002Y78122D01*
Y76091D01*
G03X127684Y75808I400J0D01*
G01X128378Y76502D01*
X129115D01*
X129985Y77371D01*
X130855Y76502D01*
X131122D01*
X138002Y69622D01*
Y68855D01*
X138371Y68485D01*
X138002Y68115D01*
Y66878D01*
X133808Y62684D01*
G03X134091Y62002I283J-282D01*
G01X135186D01*
X143904Y70719D01*
X143993Y70630D01*
X145356Y71992D01*
Y72100D01*
X147957Y74702D01*
X147887Y74773D01*
X156727Y83613D01*
X156745Y83596D01*
X165143Y91994D01*
X166492Y90644D01*
X174508D01*
Y91992D01*
X193492D01*
Y83008D01*
X174508D01*
Y84642D01*
X166492D01*
X161096Y79245D01*
X161113Y79227D01*
X152619Y70732D01*
X153349Y70002D01*
X160622D01*
X163502Y67122D01*
Y48878D01*
X160122Y45498D01*
X153349D01*
X152869Y45018D01*
X161613Y36273D01*
X161596Y36255D01*
X166992Y30858D01*
X174508D01*
Y32492D01*
X193492D01*
Y23508D01*
X174508D01*
Y24856D01*
X166992D01*
X165643Y23506D01*
X157245Y31904D01*
X157227Y31887D01*
X148482Y40631D01*
X148357Y40506D01*
X143993Y44870D01*
X143904Y44781D01*
X136686Y51998D01*
X135091D01*
G03X134808Y51316I0J-400D01*
G01X137502Y48622D01*
Y48385D01*
X138371Y47515D01*
X137502Y46645D01*
Y46378D01*
X130622Y39498D01*
X130355D01*
X129985Y39129D01*
X129615Y39498D01*
X128878D01*
X125498Y42878D01*
Y43615D01*
X125387Y43727D01*
X125498Y43839D01*
Y47622D01*
X127496Y49620D01*
X129067D01*
G03X129209Y49961I0J200D01*
G01X129091Y50078D01*
X127840D01*
G02X127649Y50088I9J2002D01*
G01X126360D01*
G02X125231Y53721I0J1992D01*
G03Y54379I-227J329D01*
G02X124626Y57000I1129J1641D01*
G02X124629Y58965I1734J980D01*
G02Y60935I1731J985D01*
G02X124478Y62570I1731J984D01*
G03X124099Y63100I-378J130D01*
G01X123420D01*
Y64016D01*
G02X123249Y64231I1470J1344D01*
G03X122591I-329J-227D01*
G02X119965Y63629I-1641J1129D01*
G02X117344Y64225I-985J1731D01*
G03X116686I-329J-228D01*
G02X114065Y63629I-1636J1135D01*
G02X112095I-985J1731D01*
G02X111576Y63424I-984J1731D01*
G02X111371Y62905I-1936J465D01*
G02X110769Y60279I-1731J-985D01*
G03Y59621I227J-329D01*
G02X111374Y57000I-1129J-1641D01*
G02X111371Y55035I-1734J-980D01*
G02X110769Y52409I-1731J-985D01*
G03Y51751I227J-329D01*
G02X111576Y50576I-1129J-1640D01*
G02X112095Y50371I-465J-1936D01*
G02X114065I985J-1731D01*
G02X116035I985J-1731D01*
G02X118000Y50374I985J-1731D01*
G02X119965Y50371I980J-1734D01*
G02X121935I985J-1731D01*
G02X124912Y48640I985J-1731D01*
G01Y47351D01*
G02X124922Y47160I-1992J-200D01*
G01Y43745D01*
G03Y43727I199J-9D01*
G01Y36829D01*
X125002Y36749D01*
Y33752D01*
X125998D01*
Y36122D01*
X127378Y37502D01*
X133622D01*
X135122Y36002D01*
X140122D01*
X141502Y34622D01*
Y32450D01*
X146002Y27950D01*
Y16500D01*
G02X138998I-3502J0D01*
G01Y25050D01*
X136800Y27248D01*
X122729D01*
X121565Y26085D01*
G02X120242Y25501I-1415J1415D01*
G03X120052Y25301I10J-200D01*
G01Y21048D01*
X113002D01*
Y16771D01*
X108052Y11821D01*
Y8048D01*
X101948D01*
Y21248D01*
X101898D01*
Y27448D01*
X89102D01*
Y27248D01*
X82898D01*
Y28498D01*
X82000D01*
G02X80220Y31416I0J2002D01*
G03X79865Y31998I-356J182D01*
G01X75329D01*
X62829Y19498D01*
X51952D01*
Y14752D01*
X53000D01*
G02X55225Y12156I0J-2252D01*
G03X55620Y11696I395J-60D01*
G01X57365D01*
X65585Y19915D01*
G02X68415Y17085I1415J-1415D01*
G01X59023Y7692D01*
X45652D01*
Y3448D01*
G37*
G54D41*
X71500Y12500D03*
G54D40*
X13350Y105610D03*
%LPD*%
G75*
G36*
G01X25647Y27793D02*
G03X30353I2353J-2793D01*
G02X30611Y28498I258J305D01*
G01X38001D01*
X39048Y27452D01*
Y27448D01*
X39051D01*
X40500Y26000D01*
X44000D01*
X44500Y25500D01*
Y23231D01*
X43769Y22500D01*
X41500D01*
X40551Y21552D01*
X39048D01*
Y20048D01*
X31000Y12000D01*
X30445D01*
Y12286D01*
X30508Y12345D01*
G03X25492I-2508J2655D01*
G01X25555Y12286D01*
Y12000D01*
X25000D01*
X23500Y13500D01*
Y27000D01*
X24998Y28498D01*
X25389D01*
G02X25647Y27793I0J-400D01*
G37*
G36*
G01X55500Y109500D02*
X57000Y108000D01*
Y92500D01*
X55000Y90500D01*
X24000D01*
X22000Y92500D01*
Y107500D01*
X24000Y109500D01*
X25594D01*
G02X25842Y108786I0J-400D01*
G03X30858I2508J-3176D01*
G02X31106Y109500I248J314D01*
G01X55500D01*
G37*
G36*
G01X46002Y25498D02*
X60329D01*
X64559Y29729D01*
G02X65202Y29622I283J-283D01*
G03X65859Y28856I1798J878D01*
G02X65914Y28244I-228J-329D01*
G01X61171Y23502D01*
X46002D01*
Y25498D01*
G37*
G36*
G01X46429Y29502D02*
X45652Y30279D01*
Y31706D01*
X57037D01*
X60415Y35085D01*
G03X60938Y36999I-1415J1415D01*
G02X61326Y37498I387J99D01*
G01X65702D01*
G02X65985Y36816I0J-400D01*
G01X58671Y29502D01*
X46429D01*
G37*
G36*
G01X45652Y35710D02*
Y36721D01*
X46429Y37498D01*
X56202D01*
G02X56485Y36816I0J-400D01*
G01X55379Y35710D01*
X45652D01*
G37*
G36*
G01X37329Y38502D02*
X33829Y42002D01*
X32332D01*
G02X31989Y42607I0J400D01*
G03X32520Y46101I-3989J2394D01*
G02X33169Y46498I389J94D01*
G01X39048D01*
Y45448D01*
Y38502D01*
X37329D01*
G37*
G36*
G01X45652Y41502D02*
Y43498D01*
X56674D01*
G02X57062Y42999I1J-400D01*
G03Y42001I1938J-499D01*
G02X56674Y41502I-387J-99D01*
G01X45652D01*
G37*
G36*
G01X60500Y92500D02*
X59500Y93500D01*
Y97000D01*
X60500Y98000D01*
X69788D01*
Y97008D01*
X70992D01*
X71000Y97000D01*
X73500D01*
Y93500D01*
X72500Y92500D01*
X60500D01*
G37*
G36*
G01X92498Y41502D02*
X78298D01*
G02X78015Y42184I0J400D01*
G01X87879Y52048D01*
X92748D01*
Y50372D01*
X92498Y50122D01*
Y41502D01*
G37*
G36*
G01X110513Y65680D02*
G03X109640Y65882I-874J-1790D01*
G01X109022Y66500D01*
X106500D01*
X102500Y70500D01*
X102000Y71000D01*
X95000D01*
X88000D01*
X86500Y72500D01*
X85500Y73500D01*
Y77500D01*
X86000Y78000D01*
X95000D01*
X95500Y77500D01*
Y73500D01*
X96500Y72500D01*
X103376D01*
X103876Y72000D01*
X104376Y71500D01*
X104878Y70998D01*
X107378Y68498D01*
X111078D01*
Y66840D01*
G03X111088Y66649I2002J9D01*
G01Y66039D01*
G02X110513Y65680I-400J0D01*
G37*
G36*
G01X81500Y93000D02*
X80502Y93998D01*
Y97000D01*
X84500D01*
X86500Y99000D01*
X91500D01*
X92000Y98500D01*
Y93500D01*
X91500Y93000D01*
X81500D01*
G37*
G36*
G01X114052Y27652D02*
Y32721D01*
X117968Y36637D01*
G02X118542Y36629I283J-282D01*
G03X120432Y36046I1458J1371D01*
G02X120918Y35655I86J-391D01*
G01Y35171D01*
X120998Y35091D01*
Y33752D01*
X119898D01*
Y30079D01*
X118735Y28915D01*
G03X118174Y27820I1415J-1416D01*
G01X118147Y27652D01*
X114052D01*
G37*
G36*
G01X94498Y41502D02*
X94000Y42000D01*
Y49500D01*
X95000Y50500D01*
X105468D01*
G03X106680Y50088I1213J1580D01*
G01X107969D01*
X107978Y50087D01*
G03X108160Y50078I190J1993D01*
G01X109422D01*
X109500Y50000D01*
Y49814D01*
X109465Y49763D01*
G03X109118Y48640I1644J-1123D01*
G01Y47355D01*
X109117Y47346D01*
G03X109112Y47271I1994J-171D01*
G03X109108Y47160I1997J-128D01*
G01Y46108D01*
X104502Y41502D01*
X94498D01*
G37*
G36*
G01X94378Y58122D02*
X94000Y58500D01*
Y66998D01*
X100171D01*
X101584Y65584D01*
Y62416D01*
Y61416D01*
X103500Y59500D01*
X104500D01*
X104860Y59140D01*
X104875Y59108D01*
G03X105243Y58571I1805J842D01*
G03X105426Y58403I1436J1380D01*
G01X105500Y58343D01*
Y58022D01*
X105141D01*
X105112Y58031D01*
G03X104500Y58122I-612J-2011D01*
G01X94378D01*
G37*
G36*
G01X121279Y69449D02*
G02X120621I-329J227D01*
G03X120553Y69541I-1635J-1137D01*
G01Y71447D01*
X120000Y72000D01*
X119000Y73000D01*
X117000D01*
X116000Y74000D01*
Y77500D01*
X116500Y78000D01*
X125000D01*
X125500Y77500D01*
Y74500D01*
X124500Y73500D01*
X124000Y73000D01*
X121398Y70398D01*
Y69602D01*
X121388Y69593D01*
G03X121279Y69449I1532J-1273D01*
G37*
G36*
G01X107500Y70500D02*
X105500Y72500D01*
X104500Y73500D01*
X104000Y74000D01*
X98500D01*
X98000D01*
X97500Y74500D01*
Y75000D01*
Y77500D01*
X98000Y78000D01*
X107000D01*
X107500Y77500D01*
Y74500D01*
Y73500D01*
X108452Y72548D01*
X109500D01*
X110952D01*
X111000Y72500D01*
X111769D01*
X113048Y71221D01*
Y70000D01*
X112181D01*
X112133Y70028D01*
X111661Y70500D01*
X107500D01*
G37*
G36*
G01X111000Y97500D02*
Y94000D01*
X110000Y93000D01*
X94500D01*
X94000Y93500D01*
Y98500D01*
X94500Y99000D01*
X100000D01*
X101500Y97500D01*
X111000D01*
G37*
G36*
G01X127500Y35500D02*
X128000Y36000D01*
X133000D01*
X134500Y34500D01*
X139500D01*
X140000Y34000D01*
Y29500D01*
X139500Y29000D01*
X127500D01*
Y35500D01*
G37*
G36*
G01X130192Y51900D02*
G02Y52260I88J180D01*
G03X130465Y52421I-872J1790D01*
G03X131923Y51999I1536J2579D01*
G01X132003Y51997D01*
X136000Y48000D01*
Y47000D01*
X130000Y41000D01*
X129500D01*
X127000Y43500D01*
Y47000D01*
X128118Y48118D01*
X129320D01*
G03X130192Y51900I0J1992D01*
G37*
G36*
G01X148498Y65574D02*
Y49926D01*
G02X147816Y49643I-400J0D01*
G01X145184Y52274D01*
X145041D01*
X139565Y57750D01*
X145041Y63226D01*
X145184D01*
X147816Y65857D01*
G02X148498Y65574I282J-283D01*
G37*
G36*
G01X124912Y68322D02*
G03X124538Y69484I-1993J0D01*
G01X124500Y69536D01*
Y70377D01*
X126002Y71878D01*
Y72002D01*
X129000Y75000D01*
X130500D01*
X136500Y69000D01*
Y67500D01*
X132500Y63500D01*
X130532D01*
G03X129320Y63912I-1213J-1580D01*
G01X126360D01*
G03X126061Y63889I3J-1992D01*
G02X125602Y64284I-59J395D01*
G01Y64602D01*
X124922D01*
Y66840D01*
G03X124913Y67023I-2002J-7D01*
G01X124912Y67032D01*
Y68322D01*
G37*
G36*
G01X129000Y93500D02*
X119000D01*
X118000Y94500D01*
Y97500D01*
X122000D01*
X124000Y99500D01*
X129000D01*
X129500Y99000D01*
Y94000D01*
X129000Y93500D01*
G37*
G36*
G01X152500Y47000D02*
X150000Y49500D01*
Y66500D01*
X152000Y68500D01*
X160000D01*
X162000Y66500D01*
Y49500D01*
X159500Y47000D01*
X152500D01*
G37*
G54D10*
X3500Y7000D03*
X16249Y4000D03*
X13500D03*
X10500D03*
X3601D03*
X7500D03*
X22500D03*
X19500D03*
X25500D03*
X3500Y31000D03*
Y28000D03*
Y22000D03*
Y25000D03*
Y19000D03*
Y16000D03*
Y13000D03*
Y10000D03*
X9000Y13000D03*
X3500Y32500D03*
Y37500D03*
Y49000D03*
Y52000D03*
Y46000D03*
Y43000D03*
Y40000D03*
Y73000D03*
Y76000D03*
Y67000D03*
Y70000D03*
Y64000D03*
Y61000D03*
Y58000D03*
X9000Y64500D03*
X3500Y100000D03*
Y91000D03*
Y97000D03*
Y94000D03*
Y85000D03*
Y88000D03*
Y82000D03*
Y79000D03*
X6500Y115000D03*
X9500D03*
X12500D03*
X15500D03*
X18500D03*
X21500D03*
X24500D03*
X3500Y109000D03*
Y115000D03*
Y112000D03*
Y103000D03*
Y106000D03*
X28500Y4000D03*
X34500D03*
X31500D03*
X37500D03*
X38000Y21500D03*
Y26500D03*
Y24000D03*
X34500Y42000D03*
X37000Y41000D03*
X42340Y74160D03*
X37000Y69500D03*
X36937Y95937D03*
X40874D03*
X33500Y115000D03*
X36500D03*
X39500D03*
X42500D03*
X45500D03*
X48500D03*
X27500D03*
X30500D03*
X70249Y4000D03*
X67500D03*
X64500D03*
X61500D03*
X55500D03*
X52500D03*
X49500D03*
X58500D03*
X53000Y6500D03*
X63500Y27000D03*
X59500Y24500D03*
X53000Y30500D03*
Y24500D03*
Y12500D03*
X71500D03*
X67000Y30500D03*
Y18500D03*
X59000Y42500D03*
Y36500D03*
X63500D03*
X59202Y32298D03*
X63500Y48500D03*
X53000Y36500D03*
Y42000D03*
Y48500D03*
X66000Y71700D03*
Y59300D03*
Y80530D03*
X63500Y115000D03*
X66500D03*
X69500D03*
X72500D03*
X51500D03*
X54500D03*
X57500D03*
X60500D03*
X76500Y4000D03*
X73500D03*
X79500D03*
X82500D03*
X91500D03*
X94500D03*
X88500D03*
X85500D03*
X86000Y20650D03*
X82000Y30500D03*
X86048Y47952D03*
X86000Y43000D03*
X77000Y48500D03*
X79110Y73200D03*
X86000Y66000D03*
Y60000D03*
X93500Y85000D03*
Y89500D03*
X90000Y94600D03*
Y97400D03*
X93500Y115000D03*
X75500D03*
X78500D03*
X81500D03*
X84500D03*
X87500D03*
X90500D03*
X109500Y4000D03*
X106500D03*
X100500D03*
X103500D03*
X97249D03*
X118500D03*
X112500D03*
X115500D03*
X108000Y27500D03*
X118000Y52000D03*
X113000D03*
X117000Y34500D03*
X101000Y43000D03*
X113000Y57000D03*
Y62000D03*
X118000D03*
Y57000D03*
X104000Y66000D03*
X99500D03*
X104000Y62500D03*
X118000Y71000D03*
X96000Y94600D03*
Y97400D03*
X99500Y85000D03*
X105500D03*
X117500D03*
X111500D03*
X117500Y89000D03*
X96500Y115000D03*
X99500D03*
X102500D03*
X105500D03*
X108500D03*
X111500D03*
X114500D03*
X117500D03*
X124249Y4000D03*
X121500D03*
X130500D03*
X127500D03*
X133500D03*
X136500D03*
X139500D03*
X123000Y20650D03*
X129000D03*
X135000D03*
X138500Y30500D03*
X120150Y27500D03*
X136500Y51000D03*
X138500Y48500D03*
X140871Y46129D03*
X141000Y40500D03*
X123000Y52000D03*
X128000Y46500D03*
X120000Y38000D03*
X129000Y34500D03*
X139000Y66500D03*
X136500Y64000D03*
X140500Y75000D03*
X123000Y62000D03*
Y57000D03*
X127500Y69000D03*
X123500Y85000D03*
X136500Y79500D03*
X127500Y95000D03*
Y97900D03*
X126500Y115000D03*
X129500D03*
X132500D03*
X135500D03*
X138500D03*
X141500D03*
X123500D03*
X120500D03*
X151249Y4000D03*
X157500D03*
X154500D03*
X160500D03*
X163500D03*
X148500D03*
X145500D03*
X142500D03*
X164000Y23500D03*
X158000Y28500D03*
X160500Y26000D03*
X155500Y31000D03*
X142500Y16500D03*
X143500Y44000D03*
X145500Y41500D03*
X153000Y33500D03*
X150500Y36000D03*
X148000Y38500D03*
X160000Y39500D03*
X162500Y37000D03*
X157500Y42000D03*
X155000Y44500D03*
X146500Y53500D03*
X160000Y77000D03*
X157500Y74500D03*
X155000Y72000D03*
X149500Y77500D03*
X141500Y69000D03*
X144000Y56000D03*
X146500Y63500D03*
X144000Y61000D03*
X141500Y58500D03*
X153500Y56000D03*
Y60000D03*
X162000Y90000D03*
X159500Y87500D03*
X157000Y85000D03*
X162500Y79000D03*
X154500Y82500D03*
X152000Y80000D03*
X153500Y115000D03*
X156500D03*
X159500D03*
X162500D03*
X144500D03*
X147500D03*
X150500D03*
X169500Y4000D03*
X166500D03*
X172500D03*
X175500D03*
X178249D03*
X181500D03*
X184500D03*
X187500D03*
X173000Y20000D03*
X169000Y23000D03*
X183000Y18000D03*
X186318Y17939D03*
X179854D03*
X176318D03*
X184000Y49500D03*
Y54500D03*
X179000D03*
Y49500D03*
X172000Y51000D03*
X169500D03*
X187318Y37939D03*
X177318D03*
X180854D03*
X184000Y38000D03*
X174000Y34500D03*
X171500Y32000D03*
X167500D03*
X165000Y34500D03*
X184000Y59500D03*
X179000D03*
X184000Y64500D03*
X179000D03*
X171500Y64000D03*
X169000D03*
X176571Y77500D03*
X184000D03*
X180071D03*
X186536D03*
X169500Y57500D03*
X172000D03*
X176000Y81000D03*
X173000Y83500D03*
X169000D03*
X174500Y94500D03*
X179571Y97500D03*
X176036D03*
X183000D03*
X186536D03*
X172571Y92500D03*
X169036D03*
X165500D03*
X165000Y81500D03*
X183500Y115000D03*
X186500D03*
X165500D03*
X168500D03*
X171500D03*
X174500D03*
X177500D03*
X180500D03*
X190500Y4000D03*
X193249D03*
Y7000D03*
Y15500D03*
Y12500D03*
Y18500D03*
Y9500D03*
X189854Y17939D03*
X189000Y49500D03*
Y54500D03*
X193249Y42500D03*
Y48500D03*
Y45500D03*
Y51500D03*
Y54500D03*
Y39500D03*
Y36500D03*
X190854Y37939D03*
X189000Y59500D03*
Y64500D03*
X193249Y57500D03*
Y60500D03*
Y63500D03*
Y66500D03*
Y72500D03*
Y75500D03*
Y69500D03*
Y78500D03*
X190071Y77500D03*
X193249Y96500D03*
Y99500D03*
X190071Y97500D03*
X189500Y115000D03*
X192500D03*
X193249Y102500D03*
Y105500D03*
Y108500D03*
Y111500D03*
G54D20*
X60000Y74470D03*
X61030Y95000D03*
X54970D03*
X60000Y80530D03*
G54D11*
X18000Y15000D03*
Y25000D03*
Y35000D03*
Y45000D03*
X28000Y15000D03*
Y25000D03*
Y35000D03*
Y45000D03*
Y55000D03*
G54D21*
X67500Y95000D03*
Y89000D03*
X86000Y24500D03*
Y30500D03*
X87500Y76000D03*
X93500D03*
X87500Y82000D03*
X93500D03*
X86500Y95500D03*
Y89500D03*
X105000Y24500D03*
Y30500D03*
X117500Y76000D03*
X99500D03*
X105500D03*
X117500Y82000D03*
X99500D03*
X105500D03*
X105000Y95500D03*
Y89500D03*
X123000Y24500D03*
Y30500D03*
X129000Y24500D03*
Y30500D03*
X135000Y24500D03*
Y30500D03*
X123500Y76000D03*
Y82000D03*
Y95000D03*
Y89000D03*
G54D30*
X139273Y61773D03*
X143727Y66227D03*
G54D12*
X18000Y55000D03*
G54D13*
X14400Y94000D03*
X26600D03*
G54D22*
X81530Y96440D03*
Y99000D03*
X72470Y96440D03*
Y99000D03*
X81530Y101560D03*
X72470D03*
X109970Y96940D03*
Y99500D03*
Y102060D03*
X119030Y96940D03*
Y99500D03*
Y102060D03*
G54D31*
X161357Y32143D03*
X152643Y49143D03*
X148357Y44857D03*
X152643Y66357D03*
X148357Y70643D03*
X165143Y87643D03*
X160857Y83357D03*
X165643Y27857D03*
G54D14*
X10390Y84000D03*
X16610D03*
X79110Y69000D03*
X72890D03*
G54D23*
X77000Y99000D03*
X114500Y99500D03*
G54D32*
X184000Y28000D03*
Y18000D03*
Y38000D03*
Y77500D03*
Y97500D03*
Y87500D03*
G54D33*
G01X18000Y25000D02*
X13000Y20000D01*
Y10500D01*
X17000Y6500D01*
X42350D01*
G01X18000Y15000D02*
X23500Y9500D01*
X33100D01*
X42100Y18500D01*
X42350D01*
G01Y36500D02*
X36500D01*
X33000Y40000D01*
X23000D01*
X18000Y45000D01*
G01X42350Y30500D02*
X22500D01*
X18000Y35000D01*
G01X42350Y48500D02*
X34000D01*
X32500Y50000D01*
X23000D01*
X18000Y55000D01*
G01X42350Y6500D02*
Y12500D01*
G01X113080Y47160D02*
Y43293D01*
X107287Y37500D01*
X69500D01*
X59500Y27500D01*
X45600D01*
X42600Y30500D01*
X42350D01*
G01X67000Y18500D02*
X58194Y9694D01*
X45406D01*
X42600Y12500D01*
X42350D01*
G01Y18500D02*
X42600D01*
X45600Y21500D01*
X62000D01*
X74500Y34000D01*
X109361D01*
X117020Y41659D01*
Y47160D01*
G01X28000Y35000D02*
X32500D01*
X33792Y33708D01*
X56208D01*
X59000Y36500D01*
G01X111110Y47160D02*
Y44110D01*
X106500Y39500D01*
X45600D01*
X42600Y36500D01*
X42350D01*
G01X77000Y48500D02*
X74000Y45500D01*
X45600D01*
X42600Y48500D01*
X42350D01*
G01Y42500D02*
Y48500D01*
G01X59000Y42500D02*
X75500D01*
X87050Y54050D01*
X108160D01*
G01X67000Y30500D02*
X72100Y35600D01*
X108174D01*
X115050Y42476D01*
Y47160D01*
G01X86000Y30500D02*
X92350D01*
G01X86000D02*
X82000D01*
G01X104500Y56020D02*
X108160D01*
G01X72850Y62500D02*
Y66090D01*
X72890Y66130D01*
Y69000D01*
G01X104000Y66000D02*
X101000Y69000D01*
X85000D01*
X81000Y65000D01*
Y64100D01*
X79400Y62500D01*
X79150D01*
G01X72470Y101560D02*
Y102500D01*
G01X105000Y24500D02*
Y17650D01*
G01X111000Y24350D02*
Y17600D01*
X105000Y11600D01*
Y11350D01*
G01X117000Y24350D02*
X111000D01*
G01X105000Y30500D02*
X108000Y27500D01*
G01X111000Y30650D02*
Y32500D01*
X118980Y40480D01*
Y47160D01*
G01X118000Y57000D02*
X113080Y52080D01*
G01D02*
X108160D01*
G01X103610Y50110D02*
X108160D01*
G01X103000Y49500D02*
X103610Y50110D01*
G01X98650Y30500D02*
X105000D01*
G01X118000Y57000D02*
X117020Y57980D01*
G01X108160Y59950D02*
X115050D01*
G01D02*
X117020Y57980D01*
G01X104000Y66000D02*
X104171D01*
X106281Y63890D01*
X108160D01*
G01X102250Y58750D02*
X103020Y57980D01*
X108160D01*
G01X112997Y70003D02*
Y69222D01*
X113080Y69139D01*
Y66840D01*
G01X112000Y71000D02*
X112997Y70003D01*
G01X111110Y66840D02*
X109660D01*
G01X115050D02*
Y69810D01*
X115048Y69812D01*
Y72050D01*
X114890Y72208D01*
Y72210D01*
X111500Y75600D01*
Y75850D01*
G01X104000Y62500D02*
X104500D01*
X105000Y62000D01*
X105082D01*
X105162Y61920D01*
X108160D01*
G01X109970Y102060D02*
Y103000D01*
G01X123000Y30500D02*
Y30350D01*
X120150Y27500D01*
G01X124870Y50130D02*
X123000Y52000D01*
G01D02*
X120950Y54050D01*
G01X124890Y47160D02*
X124870Y47180D01*
Y50130D01*
G01D02*
X127820D01*
X127840Y50110D01*
G01Y52080D02*
X129920D01*
X131934Y50066D01*
G01D02*
Y49566D01*
X133879Y47621D01*
G01X120950Y47160D02*
Y38950D01*
X120000Y38000D01*
G01X130980Y56020D02*
X127840D01*
G01X123000Y30500D02*
Y35920D01*
X122920Y36000D01*
Y47160D01*
G01X118000Y57000D02*
X120950Y54050D01*
G01X118000Y57000D02*
X122920Y61920D01*
G01X117020Y57980D02*
Y66840D01*
G01X120950Y54050D02*
X127840D01*
G01X122920Y61920D02*
Y66840D01*
G01X124890D02*
Y69890D01*
G01X127840Y63890D02*
X131390D01*
G01D02*
X132500Y65000D01*
G01X124890Y69890D02*
X125500Y70500D01*
G01X120950Y66840D02*
Y69950D01*
G01X127840Y57980D02*
X130810D01*
X130951Y58121D01*
X131061D01*
G01X118980Y66840D02*
Y70020D01*
X118000Y71000D01*
G54D24*
Y57000D03*
G54D15*
X24350Y84000D03*
X48650Y6500D03*
X42350D03*
X48650Y24500D03*
X42350D03*
Y12500D03*
X48650D03*
Y30500D03*
X42350D03*
Y18500D03*
X48650D03*
Y48500D03*
X42350D03*
X48650Y42500D03*
X42350D03*
X48650Y36500D03*
X42350D03*
X48650Y55500D03*
X42350D03*
X30650Y84000D03*
X92350Y30500D03*
X79150Y62500D03*
X72850D03*
X80150Y109000D03*
X73850D03*
X98650Y30500D03*
X117650Y109500D03*
X111350D03*
G54D34*
G01X24350Y84000D02*
X16610D01*
G01X42340Y69500D02*
X37000D01*
G01X42340D02*
Y74160D01*
G01X30650Y84000D02*
Y89823D01*
X30660Y89833D01*
Y91660D01*
G01D02*
X31000Y92000D01*
G01X60000Y68500D02*
Y62500D01*
G01Y74470D02*
Y68500D01*
G01Y62500D02*
X51700D01*
X51000Y63200D01*
G01X67500Y97000D02*
Y102350D01*
G01X60000Y80530D02*
X66000D01*
G01X67500Y108650D02*
X73500D01*
X73850Y109000D01*
G01X72470Y102500D02*
Y103550D01*
X73850Y104930D01*
Y109000D01*
G01X105000Y95500D02*
Y102850D01*
G01X109970Y103000D02*
Y104050D01*
X111350Y105430D01*
Y109500D01*
G01X105000Y109150D02*
X111000D01*
X111350Y109500D01*
G01X134121Y77121D02*
X136500Y79500D01*
G01X138121Y72621D02*
X140500Y75000D01*
G54D25*
X108160Y50110D03*
Y52080D03*
Y54050D03*
Y56020D03*
Y57980D03*
Y59950D03*
Y61920D03*
Y63890D03*
X127840Y52080D03*
Y50110D03*
Y63890D03*
Y61920D03*
Y59950D03*
Y57980D03*
Y56020D03*
Y54050D03*
G54D16*
X13350Y105610D03*
X28350D03*
G54D35*
G01X42340Y63200D02*
Y58160D01*
X42350Y58150D01*
Y55500D01*
G01X48650D02*
X55000D01*
G01X67000Y55150D02*
X72650D01*
X73000Y55500D01*
G01X61000D02*
X66650D01*
X67000Y55150D01*
G01X79000Y55500D02*
X79520Y56020D01*
X104500D01*
G54D17*
X42340Y63200D03*
Y69500D03*
X51000Y63200D03*
Y69500D03*
G54D26*
X117020Y47160D03*
X115050D03*
X113080D03*
X111110D03*
Y66840D03*
X113080D03*
X115050D03*
X117020D03*
X124890Y47160D03*
X122920D03*
X120950D03*
X118980D03*
Y66840D03*
X120950D03*
X122920D03*
X124890D03*
G54D36*
G01X28350Y105610D02*
X24103D01*
G01X28350D02*
X32597D01*
G01X28350D02*
Y101363D01*
G01X139273Y53727D02*
X138000Y55000D01*
X132000D01*
G01Y59000D02*
X136500D01*
X139273Y61773D01*
G01X148357Y44857D02*
X148643D01*
X152879Y40621D01*
G01X143727Y49273D02*
X143941D01*
X148357Y44857D01*
G01X157121Y36379D02*
X161357Y32143D01*
G01X148357Y70643D02*
Y70857D01*
X152379Y74879D01*
G01X143727Y66227D02*
X143941D01*
X148357Y70643D01*
G01X156621Y79121D02*
X160857Y83357D01*
G01X165643Y27857D02*
X183857D01*
X184000Y28000D01*
G01X165143Y87643D02*
X183857D01*
X184000Y87500D01*
G54D18*
X67000Y48850D03*
Y55150D03*
X67500Y108650D03*
Y102350D03*
X117000Y30650D03*
Y24350D03*
X105000Y17650D03*
Y11350D03*
X111000Y24350D03*
Y30650D03*
X111500Y75850D03*
Y82150D03*
X105000Y109150D03*
Y102850D03*
G54D27*
X138121Y43379D03*
X133879Y47621D03*
X134121Y39379D03*
X129879Y43621D03*
X157121Y36379D03*
X152879Y40621D03*
G54D37*
G01X25500Y15000D02*
X28000D01*
G01X25500Y25000D02*
X28000D01*
G01X9000Y64500D02*
Y13000D01*
G01X28000Y25000D02*
X31852D01*
G01X28000Y15000D02*
Y25000D01*
G01X30500Y15000D02*
X28000D01*
G01X142500Y16500D02*
Y26500D01*
X138500Y30500D01*
G54D19*
X55000Y55500D03*
X61000D03*
X60000Y68500D03*
X66000D03*
X60000Y62500D03*
X66000D03*
X90000Y49000D03*
Y43000D03*
Y60000D03*
Y66000D03*
X73000Y55500D03*
X79000D03*
X96000Y49000D03*
Y43000D03*
Y60000D03*
Y66000D03*
X160000Y51000D03*
Y57500D03*
Y64000D03*
X166000Y51000D03*
Y57500D03*
Y64000D03*
G54D28*
X139273Y53727D03*
X143727Y49273D03*
G54D38*
G01X24148Y15000D02*
X25500D01*
G01X24148Y25000D02*
X25500D01*
G01X24148Y55000D02*
X28000D01*
G01X13350Y101363D02*
Y105610D01*
G01D02*
Y109857D01*
G01X9103Y105610D02*
X13350D01*
G01D02*
X17597D01*
G01X31852Y15000D02*
X30500D01*
G01X28000Y55000D02*
Y58852D01*
G01Y55000D02*
X31852D01*
G01X48650Y6500D02*
X53000D01*
G01X48650Y24500D02*
X53000D01*
G01X48650Y18500D02*
Y12500D01*
G01D02*
X53000D01*
G01X67000Y48850D02*
X66650Y48500D01*
X63500D01*
G01X48650Y36500D02*
X53000D01*
G01X48650Y30500D02*
X53000D01*
G01Y42000D02*
X52500Y42500D01*
X48650D01*
G01Y48500D02*
X53000D01*
G01X66000Y68500D02*
Y71700D01*
G01Y62500D02*
Y59300D01*
G01X86000Y24500D02*
Y20650D01*
G01X90000Y43000D02*
X86000D01*
G01X87096Y49000D02*
X90000D01*
G01X86048Y47952D02*
X87096Y49000D01*
G01X79110Y70000D02*
Y73200D01*
G01X90000Y66000D02*
X86000D01*
G01X90000Y60000D02*
X86000D01*
G01X93500Y82000D02*
Y85000D01*
G01X86500Y89500D02*
X93500D01*
G01X117000Y30650D02*
Y34500D01*
G01X99500Y82000D02*
Y85000D01*
G01X105500Y82000D02*
Y85000D01*
G01X111500Y82150D02*
Y85000D01*
G01X123000Y24500D02*
Y20650D01*
G01X129000Y24500D02*
Y20650D01*
G01X135000Y24500D02*
Y20650D01*
G01X138121Y43379D02*
X141000Y40500D01*
G01X134121Y39379D02*
X138121Y43379D01*
G01D02*
X140871Y46129D01*
G01X132000Y55000D02*
X130980Y56020D01*
G01X131061Y58121D02*
X131121D01*
X132000Y59000D01*
G01X123500Y82000D02*
Y85000D01*
G01X117500Y82000D02*
Y85000D01*
G01X123500Y89000D02*
X117500D01*
G54D29*
X138121Y72621D03*
X133879Y68379D03*
X134121Y77121D03*
X129879Y72879D03*
X152379Y74879D03*
X156621Y79121D03*
G54D39*
G01X0Y0D02*
X196850D01*
Y118110D01*
X0D01*
Y0D01*
M02*
