G04 ================== begin FILE IDENTIFICATION RECORD ==================*
G04 Layout Name:  G:/Cadence Allegro/My_Prj/ADF4351/ADF4351_PCB_Finish.brd*
G04 Film Name:    02_BOTTOM*
G04 File Format:  Gerber RS274X*
G04 File Origin:  Cadence Allegro 16.6-2015-S108*
G04 Origin Date:  Tue Feb 19 09:10:30 2019*
G04 *
G04 Layer:  BOARD GEOMETRY/OUTLINE*
G04 Layer:  ETCH/BOTTOM*
G04 Layer:  PIN/BOTTOM*
G04 Layer:  VIA CLASS/BOTTOM*
G04 *
G04 Offset:    (0.00 0.00)*
G04 Mirror:    No*
G04 Mode:      Positive*
G04 Rotation:  0*
G04 FullContactRelief:  No*
G04 UndefLineWidth:     6.00*
G04 ================== end FILE IDENTIFICATION RECORD ====================*
%FSLAX25Y25*MOIN*%
%IR0*IPPOS*OFA0.00000B0.00000*MIA0B0*SFA1.00000B1.00000*%
%ADD10C,.022*%
%ADD11C,.063*%
%ADD13C,.0709*%
%ADD12R,.063X.063*%
%ADD14R,.1598X.0598*%
%ADD15C,.01*%
%ADD16C,.02*%
%ADD17C,.04*%
%ADD18C,.015*%
%ADD19C,.006*%
%ADD25O,.04004X.16004*%
%ADD21C,.07304*%
%ADD24C,.09304*%
%ADD22C,.08094*%
%ADD20C,.10094*%
%ADD23R,.09304X.09304*%
G75*
%LPD*%
G75*
G36*
G01X2001Y2001D02*
Y116109D01*
X194849D01*
Y2001D01*
X2001D01*
G37*
%LPC*%
G75*
G36*
G01X149998Y64050D02*
X141498Y72550D01*
Y76050D01*
X125024Y92524D01*
G02X123998Y95000I2475J2476D01*
G01Y97900D01*
G02X131002I3502J0D01*
G01Y96450D01*
X148502Y78950D01*
Y75450D01*
X157002Y66950D01*
Y56000D01*
G02X149998I-3502J0D01*
G01Y64050D01*
G37*
G36*
G01X120150Y29502D02*
G02Y25498I0J-2002D01*
G01X108000D01*
G02Y29502I0J2002D01*
G01X120150D01*
G37*
G36*
G01X130476Y48976D02*
X142002Y37450D01*
Y30500D01*
G02X134998I-3502J0D01*
G01Y34550D01*
X125524Y44024D01*
G02X130476Y48976I2476J2476D01*
G37*
G36*
G01X129000Y31998D02*
X122464D01*
X118231Y36231D01*
G02X121769Y39769I1769J1769D01*
G01X124536Y37002D01*
X129000D01*
G02Y31998I0J-2502D01*
G37*
G36*
G01X40954Y5498D02*
X11550D01*
X6524Y10524D01*
G02X11476Y15476I2476J2476D01*
G01X12685Y14267D01*
G03X13367Y14585I284J282D01*
G02X21314Y18265I4633J415D01*
G03X21998Y18546I284J281D01*
G01Y21454D01*
G03X21314Y21735I-400J0D01*
G02X21642Y27895I-3314J3265D01*
G03X22237Y27861I313J249D01*
G01X24378Y30002D01*
X25908D01*
G03X26074Y30766I0J400D01*
G02X29926I1926J4234D01*
G03X30092Y30002I166J-364D01*
G01X38622D01*
X41122Y27502D01*
X44622D01*
X46002Y26122D01*
Y22378D01*
X44622Y20998D01*
X42122D01*
X34308Y13184D01*
G03X34591Y12502I283J-282D01*
G01X38054D01*
X41554Y16002D01*
X76498D01*
Y32536D01*
X85464Y41502D01*
X95964D01*
X99231Y44769D01*
G02X103426Y43612I1769J-1769D01*
G03X104096Y43427I388J98D01*
G01X106498Y45829D01*
Y54702D01*
G03X105816Y54985I-400J0D01*
G01X100029Y49198D01*
X84029D01*
X77829Y42998D01*
X61399D01*
G03X61000Y42582I0J-400D01*
G02X61002Y42500I-2000J-90D01*
G01Y36500D01*
G02X56998I-2002J0D01*
G01Y42500D01*
G02X57000Y42582I2002J-8D01*
G03X56601Y42998I-399J16D01*
G01X32199D01*
G02Y47002I-4199J2002D01*
G01X50315D01*
G03X50685Y47553I0J400D01*
G02X53000Y51002I2315J948D01*
G01X56964D01*
X59998Y54036D01*
Y77028D01*
X38480D01*
X30450Y68998D01*
X18450D01*
X11476Y62024D01*
G02X6524Y66976I-2476J2476D01*
G01X15550Y76002D01*
X27550D01*
X35580Y84032D01*
X75520D01*
X86498Y95010D01*
Y97400D01*
G02X90159Y100898I3502J0D01*
G01X90247Y100894D01*
X90450Y101098D01*
X90050Y101498D01*
X54987D01*
X45924Y92436D01*
X36937D01*
G02Y99438I0J3501D01*
G01X43024D01*
X52087Y108502D01*
X92950D01*
X99502Y101950D01*
Y94600D01*
G02X93520Y92128I-3502J0D01*
G01X82672Y81280D01*
X88700Y75252D01*
X104300D01*
X107550Y78502D01*
X122950D01*
X129976Y71476D01*
G02X125024Y66524I-2476J-2476D01*
G01X120653Y70895D01*
G03X119975Y70677I-283J-283D01*
G02X118000Y68998I-1975J322D01*
G01X111829D01*
X110502Y67671D01*
Y44171D01*
X100829Y34498D01*
X88829D01*
X83415Y29085D01*
G02X81918Y28500I-1416J1415D01*
G03X81502Y28101I-16J-399D01*
G01Y16002D01*
X137050D01*
X140024Y18976D01*
G02X144976Y14024I2476J-2476D01*
G01X139950Y8998D01*
X44454D01*
X40954Y5498D01*
G37*
G54D25*
X67000Y24500D03*
G54D21*
X28000Y55000D03*
G54D24*
X18000Y45000D03*
Y35000D03*
G54D22*
X13350Y105610D03*
G54D20*
X28350D03*
G54D23*
X18000Y55000D03*
%LPD*%
G75*
G36*
G01X24498Y12502D02*
X23500Y13500D01*
Y27000D01*
X25000Y28500D01*
X25391D01*
G02X25648Y27794I0J-400D01*
G03X30352I2352J-2794D01*
G02X30609Y28500I257J306D01*
G01X38000D01*
X40500Y26000D01*
X44000D01*
X44500Y25500D01*
Y23000D01*
X44000Y22500D01*
X41500D01*
X31501Y12502D01*
X30891D01*
Y12768D01*
X30931Y12821D01*
G03X25069I-2931J2179D01*
G01X25109Y12768D01*
Y12502D01*
X24498D01*
G37*
G36*
G01X60722Y47684D02*
X65002Y51964D01*
Y77028D01*
X75520D01*
X75522Y77026D01*
X77022D01*
X85800Y68248D01*
X95998D01*
Y66000D01*
G03X101392Y63054I3501J0D01*
G02X102007Y62681I217J-337D01*
G03X101998Y62500I1993J-190D01*
G01Y60329D01*
X96671Y55002D01*
X80671D01*
X75585Y49915D01*
G03X75220Y47584I1415J-1416D01*
G02X74865Y47002I-356J-182D01*
G01X61005D01*
G02X60722Y47684I0J400D01*
G37*
G54D10*
X3500Y7000D03*
X16249Y4000D03*
X13500D03*
X10500D03*
X3601D03*
X7500D03*
X22500D03*
X19500D03*
X25500D03*
X3500Y31000D03*
Y28000D03*
Y22000D03*
Y25000D03*
Y19000D03*
Y16000D03*
Y13000D03*
Y10000D03*
X9000Y13000D03*
X3500Y32500D03*
Y37500D03*
Y49000D03*
Y52000D03*
Y46000D03*
Y43000D03*
Y40000D03*
Y73000D03*
Y76000D03*
Y67000D03*
Y70000D03*
Y64000D03*
Y61000D03*
Y58000D03*
X9000Y64500D03*
X3500Y100000D03*
Y91000D03*
Y97000D03*
Y94000D03*
Y85000D03*
Y88000D03*
Y82000D03*
Y79000D03*
X6500Y115000D03*
X9500D03*
X12500D03*
X15500D03*
X18500D03*
X21500D03*
X24500D03*
X3500Y109000D03*
Y115000D03*
Y112000D03*
Y103000D03*
Y106000D03*
X28500Y4000D03*
X34500D03*
X31500D03*
X37500D03*
X38000Y21500D03*
Y26500D03*
Y24000D03*
X34500Y42000D03*
X37000Y41000D03*
X42340Y74160D03*
X37000Y69500D03*
X36937Y95937D03*
X40874D03*
X33500Y115000D03*
X36500D03*
X39500D03*
X42500D03*
X45500D03*
X48500D03*
X27500D03*
X30500D03*
X70249Y4000D03*
X67500D03*
X64500D03*
X61500D03*
X55500D03*
X52500D03*
X49500D03*
X58500D03*
X53000Y6500D03*
X63500Y27000D03*
X59500Y24500D03*
X53000Y30500D03*
Y24500D03*
Y12500D03*
X71500D03*
X67000Y30500D03*
Y18500D03*
X59000Y42500D03*
Y36500D03*
X63500D03*
X59202Y32298D03*
X63500Y48500D03*
X53000Y36500D03*
Y42000D03*
Y48500D03*
X66000Y71700D03*
Y59300D03*
Y80530D03*
X63500Y115000D03*
X66500D03*
X69500D03*
X72500D03*
X51500D03*
X54500D03*
X57500D03*
X60500D03*
X76500Y4000D03*
X73500D03*
X79500D03*
X82500D03*
X91500D03*
X94500D03*
X88500D03*
X85500D03*
X86000Y20650D03*
X82000Y30500D03*
X86048Y47952D03*
X86000Y43000D03*
X77000Y48500D03*
X79110Y73200D03*
X86000Y66000D03*
Y60000D03*
X93500Y85000D03*
Y89500D03*
X90000Y94600D03*
Y97400D03*
X93500Y115000D03*
X75500D03*
X78500D03*
X81500D03*
X84500D03*
X87500D03*
X90500D03*
X109500Y4000D03*
X106500D03*
X100500D03*
X103500D03*
X97249D03*
X118500D03*
X112500D03*
X115500D03*
X108000Y27500D03*
X118000Y52000D03*
X113000D03*
X117000Y34500D03*
X101000Y43000D03*
X113000Y57000D03*
Y62000D03*
X118000D03*
Y57000D03*
X104000Y66000D03*
X99500D03*
X104000Y62500D03*
X118000Y71000D03*
X96000Y94600D03*
Y97400D03*
X99500Y85000D03*
X105500D03*
X117500D03*
X111500D03*
X117500Y89000D03*
X96500Y115000D03*
X99500D03*
X102500D03*
X105500D03*
X108500D03*
X111500D03*
X114500D03*
X117500D03*
X124249Y4000D03*
X121500D03*
X130500D03*
X127500D03*
X133500D03*
X136500D03*
X139500D03*
X123000Y20650D03*
X129000D03*
X135000D03*
X138500Y30500D03*
X120150Y27500D03*
X136500Y51000D03*
X138500Y48500D03*
X140871Y46129D03*
X141000Y40500D03*
X123000Y52000D03*
X128000Y46500D03*
X120000Y38000D03*
X129000Y34500D03*
X139000Y66500D03*
X136500Y64000D03*
X140500Y75000D03*
X123000Y62000D03*
Y57000D03*
X127500Y69000D03*
X123500Y85000D03*
X136500Y79500D03*
X127500Y95000D03*
Y97900D03*
X126500Y115000D03*
X129500D03*
X132500D03*
X135500D03*
X138500D03*
X141500D03*
X123500D03*
X120500D03*
X151249Y4000D03*
X157500D03*
X154500D03*
X160500D03*
X163500D03*
X148500D03*
X145500D03*
X142500D03*
X164000Y23500D03*
X158000Y28500D03*
X160500Y26000D03*
X155500Y31000D03*
X142500Y16500D03*
X143500Y44000D03*
X145500Y41500D03*
X153000Y33500D03*
X150500Y36000D03*
X148000Y38500D03*
X160000Y39500D03*
X162500Y37000D03*
X157500Y42000D03*
X155000Y44500D03*
X146500Y53500D03*
X160000Y77000D03*
X157500Y74500D03*
X155000Y72000D03*
X149500Y77500D03*
X141500Y69000D03*
X144000Y56000D03*
X146500Y63500D03*
X144000Y61000D03*
X141500Y58500D03*
X153500Y56000D03*
Y60000D03*
X162000Y90000D03*
X159500Y87500D03*
X157000Y85000D03*
X162500Y79000D03*
X154500Y82500D03*
X152000Y80000D03*
X153500Y115000D03*
X156500D03*
X159500D03*
X162500D03*
X144500D03*
X147500D03*
X150500D03*
X169500Y4000D03*
X166500D03*
X172500D03*
X175500D03*
X178249D03*
X181500D03*
X184500D03*
X187500D03*
X173000Y20000D03*
X169000Y23000D03*
X183000Y18000D03*
X186318Y17939D03*
X179854D03*
X176318D03*
X184000Y49500D03*
Y54500D03*
X179000D03*
Y49500D03*
X172000Y51000D03*
X169500D03*
X187318Y37939D03*
X177318D03*
X180854D03*
X184000Y38000D03*
X174000Y34500D03*
X171500Y32000D03*
X167500D03*
X165000Y34500D03*
X184000Y59500D03*
X179000D03*
X184000Y64500D03*
X179000D03*
X171500Y64000D03*
X169000D03*
X176571Y77500D03*
X184000D03*
X180071D03*
X186536D03*
X169500Y57500D03*
X172000D03*
X176000Y81000D03*
X173000Y83500D03*
X169000D03*
X174500Y94500D03*
X179571Y97500D03*
X176036D03*
X183000D03*
X186536D03*
X172571Y92500D03*
X169036D03*
X165500D03*
X165000Y81500D03*
X183500Y115000D03*
X186500D03*
X165500D03*
X168500D03*
X171500D03*
X174500D03*
X177500D03*
X180500D03*
X190500Y4000D03*
X193249D03*
Y7000D03*
Y15500D03*
Y12500D03*
Y18500D03*
Y9500D03*
X189854Y17939D03*
X189000Y49500D03*
Y54500D03*
X193249Y42500D03*
Y48500D03*
Y45500D03*
Y51500D03*
Y54500D03*
Y39500D03*
Y36500D03*
X190854Y37939D03*
X189000Y59500D03*
Y64500D03*
X193249Y57500D03*
Y60500D03*
Y63500D03*
Y66500D03*
Y72500D03*
Y75500D03*
Y69500D03*
Y78500D03*
X190071Y77500D03*
X193249Y96500D03*
Y99500D03*
X190071Y97500D03*
X189500Y115000D03*
X192500D03*
X193249Y102500D03*
Y105500D03*
Y108500D03*
Y111500D03*
G54D11*
X18000Y15000D03*
Y25000D03*
Y35000D03*
Y45000D03*
X28000Y15000D03*
Y25000D03*
Y35000D03*
Y45000D03*
Y55000D03*
G54D12*
X18000D03*
G54D13*
X13350Y105610D03*
X28350D03*
G54D14*
X184000Y18000D03*
Y38000D03*
Y77500D03*
Y97500D03*
G54D15*
G01X28000Y45000D02*
X77000D01*
X83200Y51200D01*
X99200D01*
X106500Y58500D01*
Y63500D01*
X104000Y66000D01*
G01X67000Y18500D02*
Y30500D01*
G01X59000Y36500D02*
Y42500D01*
G01X104000Y62500D02*
Y59500D01*
X97500Y53000D01*
X81500D01*
X77000Y48500D01*
G01X118000Y71000D02*
X111000D01*
X108500Y68500D01*
Y45000D01*
X100000Y36500D01*
X88000D01*
X82000Y30500D01*
G01X108000Y27500D02*
X120150D01*
G54D16*
G01X62500Y80530D02*
Y53000D01*
X58000Y48500D01*
X53000D01*
G01X101000Y43000D02*
X97000Y39000D01*
X86500D01*
X79000Y31500D01*
Y12500D01*
G01X120000Y38000D02*
X123500Y34500D01*
X129000D01*
G54D17*
G01X9000Y13000D02*
X13000Y9000D01*
X39504D01*
X43004Y12500D01*
X53000D01*
G01X28000Y15000D02*
X25500D01*
G01X28000Y25000D02*
X25500D01*
G01X62500Y80530D02*
X37030D01*
X29000Y72500D01*
X17000D01*
X9000Y64500D01*
G01X28000Y15000D02*
Y18852D01*
G01Y15000D02*
X30500D01*
G01X28000Y21148D02*
Y18852D01*
G01Y25000D02*
Y21148D01*
G01Y25000D02*
X31852D01*
G01X40874Y95937D02*
X44474D01*
X53537Y105000D01*
X91500D01*
X96000Y100500D01*
Y97400D01*
G01X36937Y95937D02*
X40874D01*
G01X71500Y12500D02*
X79000D01*
G01X53000D02*
X71500D01*
G01X66000Y80530D02*
X62500D01*
G01X76970D02*
X66000D01*
G01X79000Y12500D02*
X138500D01*
X142500Y16500D01*
G01X99500Y71750D02*
X87250D01*
X78472Y80528D01*
X76972D01*
X76970Y80530D01*
G01X90000Y97400D02*
Y94600D01*
G01X76970Y80530D02*
X90000Y93560D01*
Y94600D01*
G01X127500Y69000D02*
X121500Y75000D01*
X109000D01*
X105750Y71750D01*
X99500D01*
G01D02*
Y66000D01*
G01X96000Y94600D02*
Y97400D01*
G01X138500Y30500D02*
Y36000D01*
X128000Y46500D01*
G01X127500Y97900D02*
Y95000D01*
G01D02*
X145000Y77500D01*
Y74000D01*
X153500Y65500D01*
Y60000D01*
G01Y56000D02*
Y60000D01*
G54D18*
G01X25500Y15000D02*
X24148D01*
G01X25500Y25000D02*
X24148D01*
G01Y55000D02*
X28000D01*
G01X13350Y101363D02*
Y105610D01*
G01D02*
Y109857D01*
G01X9103Y105610D02*
X13350D01*
G01D02*
X17597D01*
G01X30500Y15000D02*
X31852D01*
G01X28000Y51148D02*
Y55000D01*
G01D02*
Y58852D01*
G01Y55000D02*
X31852D01*
G54D19*
G01X0Y0D02*
X196850D01*
Y118110D01*
X0D01*
Y0D01*
M02*
