G04 ================== begin FILE IDENTIFICATION RECORD ==================*
G04 Layout Name:  G:/Cadence Allegro/My_Prj/ADF4351/ADF4351_PCB_Finish.brd*
G04 Film Name:    03_DRILL*
G04 File Format:  Gerber RS274X*
G04 File Origin:  Cadence Allegro 16.6-2015-S108*
G04 Origin Date:  Tue Feb 19 09:10:30 2019*
G04 *
G04 Layer:  MANUFACTURING/NCLEGEND-1-2*
G04 Layer:  BOARD GEOMETRY/OUTLINE*
G04 Layer:  BOARD GEOMETRY/DIMENSION*
G04 Layer:  MANUFACTURING/NCDRILL_LEGEND*
G04 Layer:  MANUFACTURING/NCDRILL_FIGURE*
G04 *
G04 Offset:    (0.00 0.00)*
G04 Mirror:    No*
G04 Mode:      Positive*
G04 Rotation:  0*
G04 FullContactRelief:  No*
G04 UndefLineWidth:     6.00*
G04 ================== end FILE IDENTIFICATION RECORD ====================*
%FSLAX25Y25*MOIN*%
%IR0*IPPOS*OFA0.00000B0.00000*MIA0B0*SFA1.00000B1.00000*%
%AMMACRO10*
1,1,.006,.006,0.0*
20,1,.006,.006,0.0,-.006,0.0,0.0*
1,1,.006,-.006,0.0*
1,1,.006,0.0,.006*
20,1,.006,0.0,.006,0.0,-.006,0.0*
1,1,.006,0.0,-.006*
%
%ADD10MACRO10*%
%AMMACRO11*
1,1,.006,.0197,.0197*
20,1,.006,.0197,.0197,.0197,-.0197,0.0*
1,1,.006,.0197,-.0197*
20,1,.006,.0197,-.0197,-.0197,-.0197,0.0*
1,1,.006,-.0197,-.0197*
20,1,.006,-.0197,-.0197,-.0197,.0197,0.0*
1,1,.006,-.0197,.0197*
20,1,.006,-.0197,.0197,.0197,.0197,0.0*
1,1,.006,.0197,.0197*
%
%ADD11MACRO11*%
%AMMACRO13*
1,1,.006,0.0,.0236*
20,1,.006,0.0,.0236,-.020438,.0118,0.0*
1,1,.006,-.020438,.0118*
20,1,.006,-.020438,.0118,-.020438,-.0118,0.0*
1,1,.006,-.020438,-.0118*
20,1,.006,-.020438,-.0118,0.0,-.0236,0.0*
1,1,.006,0.0,-.0236*
20,1,.006,0.0,-.0236,.020438,-.0118,0.0*
1,1,.006,.020438,-.0118*
20,1,.006,.020438,-.0118,.020438,.0118,0.0*
1,1,.006,.020438,.0118*
20,1,.006,.020438,.0118,0.0,.0236,0.0*
1,1,.006,0.0,.0236*
%
%ADD13MACRO13*%
%AMMACRO12*
1,1,.006,.0197,0.0*
20,1,.006,.0197,0.0,.00985,.017061,0.0*
1,1,.006,.00985,.017061*
20,1,.006,.00985,.017061,-.00985,.017061,0.0*
1,1,.006,-.00985,.017061*
20,1,.006,-.00985,.017061,-.0197,0.0,0.0*
1,1,.006,-.0197,0.0*
20,1,.006,-.0197,0.0,-.00985,-.017061,0.0*
1,1,.006,-.00985,-.017061*
20,1,.006,-.00985,-.017061,.00985,-.017061,0.0*
1,1,.006,.00985,-.017061*
20,1,.006,.00985,-.017061,.0197,0.0,0.0*
1,1,.006,.0197,0.0*
%
%ADD12MACRO12*%
%ADD14C,.004*%
%ADD15C,.006*%
G75*
%LPD*%
G75*
G54D10*
X3500Y7000D03*
X16249Y4000D03*
X13500D03*
X10500D03*
X3601D03*
X7500D03*
X22500D03*
X19500D03*
X25500D03*
X3500Y31000D03*
Y28000D03*
Y22000D03*
Y25000D03*
Y19000D03*
Y16000D03*
Y13000D03*
Y10000D03*
X9000Y13000D03*
X3500Y32500D03*
Y37500D03*
Y49000D03*
Y52000D03*
Y46000D03*
Y43000D03*
Y40000D03*
Y73000D03*
Y76000D03*
Y67000D03*
Y70000D03*
Y64000D03*
Y61000D03*
Y58000D03*
X9000Y64500D03*
X3500Y100000D03*
Y91000D03*
Y97000D03*
Y94000D03*
Y85000D03*
Y88000D03*
Y82000D03*
Y79000D03*
X6500Y115000D03*
X9500D03*
X12500D03*
X15500D03*
X18500D03*
X21500D03*
X24500D03*
X3500Y109000D03*
Y115000D03*
Y112000D03*
Y103000D03*
Y106000D03*
X28500Y4000D03*
X34500D03*
X31500D03*
X37500D03*
X38000Y21500D03*
Y26500D03*
Y24000D03*
X34500Y42000D03*
X37000Y41000D03*
X42340Y74160D03*
X37000Y69500D03*
X36937Y95937D03*
X40874D03*
X33500Y115000D03*
X36500D03*
X39500D03*
X42500D03*
X45500D03*
X48500D03*
X27500D03*
X30500D03*
X70249Y4000D03*
X67500D03*
X64500D03*
X61500D03*
X55500D03*
X52500D03*
X49500D03*
X58500D03*
X53000Y6500D03*
X63500Y27000D03*
X59500Y24500D03*
X53000Y30500D03*
Y24500D03*
Y12500D03*
X71500D03*
X67000Y30500D03*
Y18500D03*
X59000Y42500D03*
Y36500D03*
X63500D03*
X59202Y32298D03*
X63500Y48500D03*
X53000Y36500D03*
Y42000D03*
Y48500D03*
X66000Y71700D03*
Y59300D03*
Y80530D03*
X63500Y115000D03*
X66500D03*
X69500D03*
X72500D03*
X51500D03*
X54500D03*
X57500D03*
X60500D03*
X76500Y4000D03*
X73500D03*
X79500D03*
X82500D03*
X91500D03*
X94500D03*
X88500D03*
X85500D03*
X86000Y20650D03*
X82000Y30500D03*
X86048Y47952D03*
X86000Y43000D03*
X77000Y48500D03*
X79110Y73200D03*
X86000Y66000D03*
Y60000D03*
X93500Y85000D03*
Y89500D03*
X90000Y94600D03*
Y97400D03*
X93500Y115000D03*
X75500D03*
X78500D03*
X81500D03*
X84500D03*
X87500D03*
X90500D03*
X109500Y4000D03*
X106500D03*
X100500D03*
X103500D03*
X97249D03*
X118500D03*
X112500D03*
X115500D03*
X108000Y27500D03*
X118000Y52000D03*
X113000D03*
X117000Y34500D03*
X101000Y43000D03*
X113000Y57000D03*
Y62000D03*
X118000D03*
Y57000D03*
X104000Y66000D03*
X99500D03*
X104000Y62500D03*
X118000Y71000D03*
X96000Y94600D03*
Y97400D03*
X99500Y85000D03*
X105500D03*
X117500D03*
X111500D03*
X117500Y89000D03*
X96500Y115000D03*
X99500D03*
X102500D03*
X105500D03*
X108500D03*
X111500D03*
X114500D03*
X117500D03*
X124249Y4000D03*
X121500D03*
X130500D03*
X127500D03*
X133500D03*
X136500D03*
X139500D03*
X123000Y20650D03*
X129000D03*
X135000D03*
X138500Y30500D03*
X120150Y27500D03*
X136500Y51000D03*
X138500Y48500D03*
X140871Y46129D03*
X141000Y40500D03*
X123000Y52000D03*
X128000Y46500D03*
X120000Y38000D03*
X129000Y34500D03*
X139000Y66500D03*
X136500Y64000D03*
X140500Y75000D03*
X123000Y62000D03*
Y57000D03*
X127500Y69000D03*
X123500Y85000D03*
X136500Y79500D03*
X127500Y95000D03*
Y97900D03*
X126500Y115000D03*
X129500D03*
X132500D03*
X135500D03*
X138500D03*
X141500D03*
X123500D03*
X120500D03*
X151249Y4000D03*
X157500D03*
X154500D03*
X160500D03*
X163500D03*
X148500D03*
X145500D03*
X142500D03*
X164000Y23500D03*
X158000Y28500D03*
X160500Y26000D03*
X155500Y31000D03*
X142500Y16500D03*
X143500Y44000D03*
X145500Y41500D03*
X153000Y33500D03*
X150500Y36000D03*
X148000Y38500D03*
X160000Y39500D03*
X162500Y37000D03*
X157500Y42000D03*
X155000Y44500D03*
X146500Y53500D03*
X160000Y77000D03*
X157500Y74500D03*
X155000Y72000D03*
X149500Y77500D03*
X141500Y69000D03*
X144000Y56000D03*
X146500Y63500D03*
X144000Y61000D03*
X141500Y58500D03*
X153500Y56000D03*
Y60000D03*
X162000Y90000D03*
X159500Y87500D03*
X157000Y85000D03*
X162500Y79000D03*
X154500Y82500D03*
X152000Y80000D03*
X153500Y115000D03*
X156500D03*
X159500D03*
X162500D03*
X144500D03*
X147500D03*
X150500D03*
X169500Y4000D03*
X166500D03*
X172500D03*
X175500D03*
X178249D03*
X181500D03*
X184500D03*
X187500D03*
X173000Y20000D03*
X169000Y23000D03*
X183000Y18000D03*
X186318Y17939D03*
X179854D03*
X176318D03*
X184000Y49500D03*
Y54500D03*
X179000D03*
Y49500D03*
X172000Y51000D03*
X169500D03*
X187318Y37939D03*
X177318D03*
X180854D03*
X184000Y38000D03*
X174000Y34500D03*
X171500Y32000D03*
X167500D03*
X165000Y34500D03*
X184000Y59500D03*
X179000D03*
X184000Y64500D03*
X179000D03*
X171500Y64000D03*
X169000D03*
X176571Y77500D03*
X184000D03*
X180071D03*
X186536D03*
X169500Y57500D03*
X172000D03*
X176000Y81000D03*
X173000Y83500D03*
X169000D03*
X174500Y94500D03*
X179571Y97500D03*
X176036D03*
X183000D03*
X186536D03*
X172571Y92500D03*
X169036D03*
X165500D03*
X165000Y81500D03*
X183500Y115000D03*
X186500D03*
X165500D03*
X168500D03*
X171500D03*
X174500D03*
X177500D03*
X180500D03*
X190500Y4000D03*
X193249D03*
Y7000D03*
Y15500D03*
Y12500D03*
Y18500D03*
Y9500D03*
X189854Y17939D03*
X189000Y49500D03*
Y54500D03*
X193249Y42500D03*
Y48500D03*
Y45500D03*
Y51500D03*
Y54500D03*
Y39500D03*
Y36500D03*
X190854Y37939D03*
X189000Y59500D03*
Y64500D03*
X193249Y57500D03*
Y60500D03*
Y63500D03*
Y66500D03*
Y72500D03*
Y75500D03*
Y69500D03*
Y78500D03*
X190071Y77500D03*
X193249Y96500D03*
Y99500D03*
X190071Y97500D03*
X189500Y115000D03*
X192500D03*
X193249Y102500D03*
Y105500D03*
Y108500D03*
Y111500D03*
X298500Y60500D03*
G54D11*
X18000Y15000D03*
Y25000D03*
Y35000D03*
Y45000D03*
X28000Y15000D03*
Y25000D03*
Y35000D03*
Y45000D03*
Y55000D03*
X298500Y47500D03*
G54D12*
X18000Y55000D03*
X298500Y34500D03*
G54D13*
X13350Y105610D03*
X28350D03*
X298500Y21500D03*
G54D14*
G01X280350Y70250D02*
Y76750D01*
X284150D01*
G01X282750Y73608D02*
X280350D01*
G01X287550Y76750D02*
X289950D01*
G01X288750D02*
Y70250D01*
G01X287550D02*
X289950D01*
G01X295850Y73500D02*
X297850D01*
Y71550D01*
X297250Y70900D01*
X296550Y70467D01*
X295550Y70250D01*
X294550Y70467D01*
X293850Y70900D01*
X293250Y71550D01*
X292850Y72308D01*
X292650Y73175D01*
Y73933D01*
X292850Y74583D01*
X293250Y75342D01*
X293850Y75992D01*
X294450Y76425D01*
X295250Y76750D01*
X295950D01*
X296750Y76533D01*
X297350Y76100D01*
G01X299550Y76750D02*
Y72092D01*
X299950Y71116D01*
X300750Y70467D01*
X301750Y70250D01*
X302750Y70467D01*
X303550Y71116D01*
X303950Y72092D01*
Y76750D01*
G01X306250Y70250D02*
Y76750D01*
X308750D01*
X309550Y76425D01*
X310050Y75992D01*
X310250Y75125D01*
X310050Y74258D01*
X309450Y73717D01*
X308750Y73392D01*
X306250D01*
G01X308750D02*
X310250Y70250D01*
G01X316750D02*
X312750D01*
Y76750D01*
X316750D01*
G01X315150Y73608D02*
X312750D01*
G01X316550Y108250D02*
Y114750D01*
X318550D01*
X319350Y114425D01*
X319950Y113992D01*
X320450Y113342D01*
X320850Y112583D01*
X320950Y111500D01*
X320850Y110417D01*
X320450Y109658D01*
X319950Y109008D01*
X319350Y108575D01*
X318550Y108250D01*
X316550D01*
G01X323250D02*
Y114750D01*
X325750D01*
X326550Y114425D01*
X327050Y113992D01*
X327250Y113125D01*
X327050Y112258D01*
X326450Y111717D01*
X325750Y111392D01*
X323250D01*
G01X325750D02*
X327250Y108250D01*
G01X330550Y114750D02*
X332950D01*
G01X331750D02*
Y108250D01*
G01X330550D02*
X332950D01*
G01X336250Y114750D02*
Y108250D01*
X340250D01*
G01X342750Y114750D02*
Y108250D01*
X346750D01*
G01X359950Y114208D02*
X359350Y114533D01*
X358650Y114750D01*
X357850D01*
X356950Y114425D01*
X356250Y113883D01*
X355750Y113233D01*
X355350Y112150D01*
X355250Y111175D01*
X355450Y110200D01*
X355750Y109550D01*
X356350Y108900D01*
X357050Y108467D01*
X357750Y108250D01*
X358450D01*
X359150Y108467D01*
X359750Y108792D01*
X360250Y109225D01*
G01X362150Y108250D02*
Y114750D01*
G01X366350D02*
Y108250D01*
G01Y111500D02*
X362150D01*
G01X368250Y108250D02*
X370750Y114750D01*
X373250Y108250D01*
G01X372350Y110525D02*
X369150D01*
G01X375250Y108250D02*
Y114750D01*
X377750D01*
X378550Y114425D01*
X379050Y113992D01*
X379250Y113125D01*
X379050Y112258D01*
X378450Y111717D01*
X377750Y111392D01*
X375250D01*
G01X377750D02*
X379250Y108250D01*
G01X383750Y114750D02*
Y108250D01*
G01X381450Y114750D02*
X386050D01*
G01X390250Y108033D02*
X390050Y108142D01*
Y108358D01*
X390250Y108467D01*
X390450Y108358D01*
Y108142D01*
X390250Y108033D01*
G01Y110958D02*
X390050Y111067D01*
Y111283D01*
X390250Y111392D01*
X390450Y111283D01*
Y111067D01*
X390250Y110958D01*
G01X403250Y114750D02*
Y108250D01*
G01X400950Y114750D02*
X405550D01*
G01X409750Y108250D02*
X408950Y108358D01*
X408250Y108792D01*
X407650Y109442D01*
X407250Y110200D01*
X407050Y111067D01*
Y111933D01*
X407250Y112800D01*
X407650Y113558D01*
X408250Y114208D01*
X408950Y114642D01*
X409750Y114750D01*
X410550Y114642D01*
X411250Y114208D01*
X411850Y113558D01*
X412250Y112800D01*
X412450Y111933D01*
Y111067D01*
X412250Y110200D01*
X411850Y109442D01*
X411250Y108792D01*
X410550Y108358D01*
X409750Y108250D01*
G01X414250D02*
Y114750D01*
X416650D01*
X417450Y114425D01*
X418050Y113667D01*
X418250Y112800D01*
X418050Y111933D01*
X417550Y111283D01*
X416650Y110958D01*
X414250D01*
G01X429250Y114750D02*
Y108250D01*
G01X427850Y112583D02*
X430650D01*
G01X435750Y108250D02*
X435150Y108358D01*
X434550Y108792D01*
X434150Y109550D01*
X433950Y110417D01*
X434150Y111283D01*
X434550Y112042D01*
X435150Y112475D01*
X435750Y112583D01*
X436350Y112475D01*
X436950Y112042D01*
X437350Y111283D01*
X437450Y110417D01*
X437350Y109550D01*
X436950Y108792D01*
X436350Y108358D01*
X435750Y108250D01*
G01X449550Y111717D02*
X449950Y112042D01*
X450250Y112583D01*
X450450Y113342D01*
X450250Y113992D01*
X449850Y114425D01*
X449150Y114750D01*
X446450D01*
Y108250D01*
X449750D01*
X450450Y108683D01*
X450850Y109333D01*
X451050Y110092D01*
X450850Y110850D01*
X450250Y111500D01*
X449550Y111717D01*
X446450D01*
G01X455250Y108250D02*
X454450Y108358D01*
X453750Y108792D01*
X453150Y109442D01*
X452750Y110200D01*
X452550Y111067D01*
Y111933D01*
X452750Y112800D01*
X453150Y113558D01*
X453750Y114208D01*
X454450Y114642D01*
X455250Y114750D01*
X456050Y114642D01*
X456750Y114208D01*
X457350Y113558D01*
X457750Y112800D01*
X457950Y111933D01*
Y111067D01*
X457750Y110200D01*
X457350Y109442D01*
X456750Y108792D01*
X456050Y108358D01*
X455250Y108250D01*
G01X461750Y114750D02*
Y108250D01*
G01X459450Y114750D02*
X464050D01*
G01X468250D02*
Y108250D01*
G01X465950Y114750D02*
X470550D01*
G01X474750Y108250D02*
X473950Y108358D01*
X473250Y108792D01*
X472650Y109442D01*
X472250Y110200D01*
X472050Y111067D01*
Y111933D01*
X472250Y112800D01*
X472650Y113558D01*
X473250Y114208D01*
X473950Y114642D01*
X474750Y114750D01*
X475550Y114642D01*
X476250Y114208D01*
X476850Y113558D01*
X477250Y112800D01*
X477450Y111933D01*
Y111067D01*
X477250Y110200D01*
X476850Y109442D01*
X476250Y108792D01*
X475550Y108358D01*
X474750Y108250D01*
G01X478650D02*
Y114750D01*
X481250Y109333D01*
X483850Y114750D01*
Y108250D01*
G01X332500Y83250D02*
X335000Y89750D01*
X337500Y83250D01*
G01X336600Y85525D02*
X333400D01*
G01X339500Y89750D02*
Y83250D01*
X343500D01*
G01X346000Y89750D02*
Y83250D01*
X350000D01*
G01X358800Y89750D02*
Y85092D01*
X359200Y84116D01*
X360000Y83467D01*
X361000Y83250D01*
X362000Y83467D01*
X362800Y84116D01*
X363200Y85092D01*
Y89750D01*
G01X365200Y83250D02*
Y89750D01*
X369800Y83250D01*
Y89750D01*
G01X372800D02*
X375200D01*
G01X374000D02*
Y83250D01*
G01X372800D02*
X375200D01*
G01X380500Y89750D02*
Y83250D01*
G01X378200Y89750D02*
X382800D01*
G01X384900Y84116D02*
X385700Y83575D01*
X386600Y83250D01*
X387400D01*
X388200Y83575D01*
X388800Y84116D01*
X389100Y84875D01*
X388900Y85633D01*
X388400Y86283D01*
X387500Y86717D01*
X386300Y86933D01*
X385600Y87367D01*
X385300Y88125D01*
X385500Y88883D01*
X386000Y89425D01*
X386700Y89750D01*
X387400D01*
X388100Y89533D01*
X388700Y88992D01*
G01X397500Y83250D02*
X400000Y89750D01*
X402500Y83250D01*
G01X401600Y85525D02*
X398400D01*
G01X404500Y83250D02*
Y89750D01*
X407000D01*
X407800Y89425D01*
X408300Y88992D01*
X408500Y88125D01*
X408300Y87258D01*
X407700Y86717D01*
X407000Y86392D01*
X404500D01*
G01X407000D02*
X408500Y83250D01*
G01X415000D02*
X411000D01*
Y89750D01*
X415000D01*
G01X413400Y86608D02*
X411000D01*
G01X424800Y89750D02*
X427200D01*
G01X426000D02*
Y83250D01*
G01X424800D02*
X427200D01*
G01X430200D02*
Y89750D01*
X434800Y83250D01*
Y89750D01*
G01X442900Y83250D02*
Y89750D01*
X445500Y84333D01*
X448100Y89750D01*
Y83250D01*
G01X450800Y89750D02*
X453200D01*
G01X452000D02*
Y83250D01*
G01X450800D02*
X453200D01*
G01X456500Y89750D02*
Y83250D01*
X460500D01*
G01X462900Y84116D02*
X463700Y83575D01*
X464600Y83250D01*
X465400D01*
X466200Y83575D01*
X466800Y84116D01*
X467100Y84875D01*
X466900Y85633D01*
X466400Y86283D01*
X465500Y86717D01*
X464300Y86933D01*
X463600Y87367D01*
X463300Y88125D01*
X463500Y88883D01*
X464000Y89425D01*
X464700Y89750D01*
X465400D01*
X466100Y89533D01*
X466700Y88992D01*
G01X358550Y32550D02*
X359150Y31792D01*
X359950Y31358D01*
X360850Y31250D01*
X361650Y31358D01*
X362450Y31900D01*
X362950Y32550D01*
X363050Y33200D01*
X362850Y33958D01*
X362150Y34500D01*
X361450Y34717D01*
X360550D01*
G01X361450D02*
X362050Y35042D01*
X362550Y35583D01*
X362750Y36233D01*
X362550Y36883D01*
X362050Y37425D01*
X361150Y37750D01*
X360250Y37642D01*
X359350Y37208D01*
G01X365550Y32008D02*
X366250Y31467D01*
X367050Y31250D01*
X367850Y31467D01*
X368550Y32116D01*
X369050Y33092D01*
X369250Y34067D01*
Y35258D01*
X369050Y36233D01*
X368550Y37100D01*
X367950Y37533D01*
X367250Y37750D01*
X366450Y37533D01*
X365850Y37100D01*
X365450Y36450D01*
X365250Y35583D01*
X365450Y34825D01*
X365950Y34067D01*
X366550Y33633D01*
X367250Y33525D01*
X368050Y33742D01*
X368650Y34283D01*
X369250Y35258D01*
G01X373750Y31033D02*
X373550Y31142D01*
Y31358D01*
X373750Y31467D01*
X373950Y31358D01*
Y31142D01*
X373750Y31033D01*
G01X381450Y31250D02*
Y37750D01*
X377750Y33092D01*
X382750D01*
G01X361950Y18250D02*
Y24750D01*
X358250Y20092D01*
X363250D01*
G01X367050Y18250D02*
X367250Y19658D01*
X367550Y20850D01*
X367950Y21933D01*
X368450Y23125D01*
X369250Y24750D01*
X365250D01*
G01X373750Y18033D02*
X373550Y18142D01*
Y18358D01*
X373750Y18467D01*
X373950Y18358D01*
Y18142D01*
X373750Y18033D01*
G01X378350Y23667D02*
X378950Y24317D01*
X379650Y24642D01*
X380450Y24750D01*
X381450Y24533D01*
X382150Y23992D01*
X382350Y23342D01*
X382250Y22692D01*
X381850Y22150D01*
X379850Y21067D01*
X378950Y20308D01*
X378350Y19225D01*
X378150Y18250D01*
X382350D01*
G01X358550Y45550D02*
X359150Y44792D01*
X359950Y44358D01*
X360850Y44250D01*
X361650Y44358D01*
X362450Y44900D01*
X362950Y45550D01*
X363050Y46200D01*
X362850Y46958D01*
X362150Y47500D01*
X361450Y47717D01*
X360550D01*
G01X361450D02*
X362050Y48042D01*
X362550Y48583D01*
X362750Y49233D01*
X362550Y49883D01*
X362050Y50425D01*
X361150Y50750D01*
X360250Y50642D01*
X359350Y50208D01*
G01X365550Y45008D02*
X366250Y44467D01*
X367050Y44250D01*
X367850Y44467D01*
X368550Y45116D01*
X369050Y46092D01*
X369250Y47067D01*
Y48258D01*
X369050Y49233D01*
X368550Y50100D01*
X367950Y50533D01*
X367250Y50750D01*
X366450Y50533D01*
X365850Y50100D01*
X365450Y49450D01*
X365250Y48583D01*
X365450Y47825D01*
X365950Y47067D01*
X366550Y46633D01*
X367250Y46525D01*
X368050Y46742D01*
X368650Y47283D01*
X369250Y48258D01*
G01X373750Y44033D02*
X373550Y44142D01*
Y44358D01*
X373750Y44467D01*
X373950Y44358D01*
Y44142D01*
X373750Y44033D01*
G01X381450Y44250D02*
Y50750D01*
X377750Y46092D01*
X382750D01*
G01X358650Y71116D02*
X359450Y70575D01*
X360350Y70250D01*
X361150D01*
X361950Y70575D01*
X362550Y71116D01*
X362850Y71875D01*
X362650Y72633D01*
X362150Y73283D01*
X361250Y73717D01*
X360050Y73933D01*
X359350Y74367D01*
X359050Y75125D01*
X359250Y75883D01*
X359750Y76425D01*
X360450Y76750D01*
X361150D01*
X361850Y76533D01*
X362450Y75992D01*
G01X366050Y76750D02*
X368450D01*
G01X367250D02*
Y70250D01*
G01X366050D02*
X368450D01*
G01X371850Y76750D02*
X375650D01*
X371850Y70250D01*
X375650D01*
G01X382250D02*
X378250D01*
Y76750D01*
X382250D01*
G01X380650Y73608D02*
X378250D01*
G01X360750Y57250D02*
Y63750D01*
X359550Y62450D01*
G01Y57250D02*
X361950D01*
G01X365350Y62667D02*
X365950Y63317D01*
X366650Y63642D01*
X367450Y63750D01*
X368450Y63533D01*
X369150Y62992D01*
X369350Y62342D01*
X369250Y61692D01*
X368850Y61150D01*
X366850Y60067D01*
X365950Y59308D01*
X365350Y58225D01*
X365150Y57250D01*
X369350D01*
G01X373750Y57033D02*
X373550Y57142D01*
Y57358D01*
X373750Y57467D01*
X373950Y57358D01*
Y57142D01*
X373750Y57033D01*
G01X380250Y63750D02*
X379450Y63533D01*
X378850Y62992D01*
X378450Y62342D01*
X378150Y61475D01*
X378050Y60500D01*
X378150Y59525D01*
X378450Y58658D01*
X378850Y58008D01*
X379450Y57467D01*
X380250Y57250D01*
X381050Y57467D01*
X381650Y58008D01*
X382050Y58658D01*
X382350Y59525D01*
X382450Y60500D01*
X382350Y61475D01*
X382050Y62342D01*
X381650Y62992D01*
X381050Y63533D01*
X380250Y63750D01*
G01X434000Y31250D02*
Y37750D01*
X436400D01*
X437200Y37425D01*
X437800Y36667D01*
X438000Y35800D01*
X437800Y34933D01*
X437300Y34283D01*
X436400Y33958D01*
X434000D01*
G01X440500Y37750D02*
Y31250D01*
X444500D01*
G01X446500D02*
X449000Y37750D01*
X451500Y31250D01*
G01X450600Y33525D02*
X447400D01*
G01X455500Y37750D02*
Y31250D01*
G01X453200Y37750D02*
X457800D01*
G01X464000Y31250D02*
X460000D01*
Y37750D01*
X464000D01*
G01X462400Y34608D02*
X460000D01*
G01X466300Y31250D02*
Y37750D01*
X468300D01*
X469100Y37425D01*
X469700Y36992D01*
X470200Y36342D01*
X470600Y35583D01*
X470700Y34500D01*
X470600Y33417D01*
X470200Y32658D01*
X469700Y32008D01*
X469100Y31575D01*
X468300Y31250D01*
X466300D01*
G01X434000Y18250D02*
Y24750D01*
X436400D01*
X437200Y24425D01*
X437800Y23667D01*
X438000Y22800D01*
X437800Y21933D01*
X437300Y21283D01*
X436400Y20958D01*
X434000D01*
G01X440500Y24750D02*
Y18250D01*
X444500D01*
G01X446500D02*
X449000Y24750D01*
X451500Y18250D01*
G01X450600Y20525D02*
X447400D01*
G01X455500Y24750D02*
Y18250D01*
G01X453200Y24750D02*
X457800D01*
G01X464000Y18250D02*
X460000D01*
Y24750D01*
X464000D01*
G01X462400Y21608D02*
X460000D01*
G01X466300Y18250D02*
Y24750D01*
X468300D01*
X469100Y24425D01*
X469700Y23992D01*
X470200Y23342D01*
X470600Y22583D01*
X470700Y21500D01*
X470600Y20417D01*
X470200Y19658D01*
X469700Y19008D01*
X469100Y18575D01*
X468300Y18250D01*
X466300D01*
G01X434000Y44250D02*
Y50750D01*
X436400D01*
X437200Y50425D01*
X437800Y49667D01*
X438000Y48800D01*
X437800Y47933D01*
X437300Y47283D01*
X436400Y46958D01*
X434000D01*
G01X440500Y50750D02*
Y44250D01*
X444500D01*
G01X446500D02*
X449000Y50750D01*
X451500Y44250D01*
G01X450600Y46525D02*
X447400D01*
G01X455500Y50750D02*
Y44250D01*
G01X453200Y50750D02*
X457800D01*
G01X464000Y44250D02*
X460000D01*
Y50750D01*
X464000D01*
G01X462400Y47608D02*
X460000D01*
G01X466300Y44250D02*
Y50750D01*
X468300D01*
X469100Y50425D01*
X469700Y49992D01*
X470200Y49342D01*
X470600Y48583D01*
X470700Y47500D01*
X470600Y46417D01*
X470200Y45658D01*
X469700Y45008D01*
X469100Y44575D01*
X468300Y44250D01*
X466300D01*
G01X434000Y70250D02*
Y76750D01*
X436400D01*
X437200Y76425D01*
X437800Y75667D01*
X438000Y74800D01*
X437800Y73933D01*
X437300Y73283D01*
X436400Y72958D01*
X434000D01*
G01X440500Y76750D02*
Y70250D01*
X444500D01*
G01X446500D02*
X449000Y76750D01*
X451500Y70250D01*
G01X450600Y72525D02*
X447400D01*
G01X455500Y76750D02*
Y70250D01*
G01X453200Y76750D02*
X457800D01*
G01X464000Y70250D02*
X460000D01*
Y76750D01*
X464000D01*
G01X462400Y73608D02*
X460000D01*
G01X466300Y70250D02*
Y76750D01*
X468300D01*
X469100Y76425D01*
X469700Y75992D01*
X470200Y75342D01*
X470600Y74583D01*
X470700Y73500D01*
X470600Y72417D01*
X470200Y71658D01*
X469700Y71008D01*
X469100Y70575D01*
X468300Y70250D01*
X466300D01*
G01X434000Y57250D02*
Y63750D01*
X436400D01*
X437200Y63425D01*
X437800Y62667D01*
X438000Y61800D01*
X437800Y60933D01*
X437300Y60283D01*
X436400Y59958D01*
X434000D01*
G01X440500Y63750D02*
Y57250D01*
X444500D01*
G01X446500D02*
X449000Y63750D01*
X451500Y57250D01*
G01X450600Y59525D02*
X447400D01*
G01X455500Y63750D02*
Y57250D01*
G01X453200Y63750D02*
X457800D01*
G01X464000Y57250D02*
X460000D01*
Y63750D01*
X464000D01*
G01X462400Y60608D02*
X460000D01*
G01X466300Y57250D02*
Y63750D01*
X468300D01*
X469100Y63425D01*
X469700Y62992D01*
X470200Y62342D01*
X470600Y61583D01*
X470700Y60500D01*
X470600Y59417D01*
X470200Y58658D01*
X469700Y58008D01*
X469100Y57575D01*
X468300Y57250D01*
X466300D01*
G01X504750Y31250D02*
Y37750D01*
X503550Y36450D01*
G01Y31250D02*
X505950D01*
G01X502850Y23667D02*
X503450Y24317D01*
X504150Y24642D01*
X504950Y24750D01*
X505950Y24533D01*
X506650Y23992D01*
X506850Y23342D01*
X506750Y22692D01*
X506350Y22150D01*
X504350Y21067D01*
X503450Y20308D01*
X502850Y19225D01*
X502650Y18250D01*
X506850D01*
G01X503050Y45008D02*
X503750Y44467D01*
X504550Y44250D01*
X505350Y44467D01*
X506050Y45116D01*
X506550Y46092D01*
X506750Y47067D01*
Y48258D01*
X506550Y49233D01*
X506050Y50100D01*
X505450Y50533D01*
X504750Y50750D01*
X503950Y50533D01*
X503350Y50100D01*
X502950Y49450D01*
X502750Y48583D01*
X502950Y47825D01*
X503450Y47067D01*
X504050Y46633D01*
X504750Y46525D01*
X505550Y46742D01*
X506150Y47283D01*
X506750Y48258D01*
G01X498250Y70250D02*
X497450Y70358D01*
X496750Y70792D01*
X496150Y71442D01*
X495750Y72200D01*
X495550Y73067D01*
Y73933D01*
X495750Y74800D01*
X496150Y75558D01*
X496750Y76208D01*
X497450Y76642D01*
X498250Y76750D01*
X499050Y76642D01*
X499750Y76208D01*
X500350Y75558D01*
X500750Y74800D01*
X500950Y73933D01*
Y73067D01*
X500750Y72200D01*
X500350Y71442D01*
X499750Y70792D01*
X499050Y70358D01*
X498250Y70250D01*
G01X499050Y71983D02*
X500250Y70250D01*
G01X504750Y76750D02*
Y70250D01*
G01X502450Y76750D02*
X507050D01*
G01X511250Y70250D02*
Y73175D01*
X509250Y76750D01*
G01X513250D02*
X511250Y73175D01*
G01X496050Y58550D02*
X496650Y57792D01*
X497450Y57358D01*
X498350Y57250D01*
X499150Y57358D01*
X499950Y57900D01*
X500450Y58550D01*
X500550Y59200D01*
X500350Y59958D01*
X499650Y60500D01*
X498950Y60717D01*
X498050D01*
G01X498950D02*
X499550Y61042D01*
X500050Y61583D01*
X500250Y62233D01*
X500050Y62883D01*
X499550Y63425D01*
X498650Y63750D01*
X497750Y63642D01*
X496850Y63208D01*
G01X502550Y58225D02*
X503150Y57683D01*
X503850Y57358D01*
X504750Y57250D01*
X505650Y57467D01*
X506350Y57900D01*
X506850Y58658D01*
X506950Y59525D01*
X506750Y60392D01*
X506250Y60933D01*
X505550Y61367D01*
X504850Y61475D01*
X504150Y61367D01*
X503250Y60933D01*
X503550Y63750D01*
X506250D01*
G01X509350Y59958D02*
X510050Y60717D01*
X510650Y61150D01*
X511450Y61367D01*
X512150Y61150D01*
X512650Y60717D01*
X513050Y60067D01*
X513150Y59308D01*
X513050Y58658D01*
X512650Y58008D01*
X512050Y57467D01*
X511350Y57250D01*
X510550Y57467D01*
X509850Y58116D01*
X509450Y59092D01*
X509350Y60175D01*
X509550Y61583D01*
X509850Y62342D01*
X510350Y63100D01*
X511050Y63642D01*
X511750Y63750D01*
X512450Y63533D01*
X512950Y62992D01*
G54D15*
G01X0Y0D02*
X196850D01*
Y118110D01*
X0D01*
Y0D01*
G01X275500Y15000D02*
Y118000D01*
X524500D01*
Y15000D01*
X275500D01*
G01Y28000D02*
X524500D01*
G01X275500Y41000D02*
X524500D01*
G01X275500Y67000D02*
X524500D01*
G01X275500Y54000D02*
X524500D01*
G01X275500Y93000D02*
X524500D01*
G01X275500Y80000D02*
X524500D01*
G01X321500D02*
Y15000D01*
G01X419500Y80000D02*
Y15000D01*
G01X485000Y80000D02*
Y15000D01*
M02*
