G04 ================== begin FILE IDENTIFICATION RECORD ==================*
G04 Layout Name:  G:/Cadence Allegro/My_Prj/ADF4351/ADF4351_PCB_Finish.brd*
G04 Film Name:    04_SILK_TOP*
G04 File Format:  Gerber RS274X*
G04 File Origin:  Cadence Allegro 16.6-2015-S108*
G04 Origin Date:  Tue Feb 19 09:10:30 2019*
G04 *
G04 Layer:  BOARD GEOMETRY/OUTLINE*
G04 Layer:  PACKAGE GEOMETRY/SILKSCREEN_TOP*
G04 Layer:  BOARD GEOMETRY/SILKSCREEN_TOP*
G04 Layer:  REF DES/SILKSCREEN_TOP*
G04 *
G04 Offset:    (0.00 0.00)*
G04 Mirror:    No*
G04 Mode:      Positive*
G04 Rotation:  0*
G04 FullContactRelief:  No*
G04 UndefLineWidth:     6.00*
G04 ================== end FILE IDENTIFICATION RECORD ====================*
%FSLAX25Y25*MOIN*%
%IR0*IPPOS*OFA0.00000B0.00000*MIA0B0*SFA1.00000B1.00000*%
%ADD10C,.004*%
%ADD11C,.005*%
%ADD12C,.006*%
%ADD13C,.008*%
%ADD14C,.0079*%
G75*
%LPD*%
G75*
G36*
G01X14290Y82030D02*
Y85970D01*
X12320Y84000D01*
X14290Y82030D01*
G37*
G36*
G01X75210Y70970D02*
Y67030D01*
X77180Y69000D01*
X75210Y70970D01*
G37*
G36*
G01X82620Y92500D02*
G03I-1120J0D01*
G37*
G36*
G01X104174Y44039D02*
G03I-1761J0D01*
G37*
G36*
G01X120120Y93000D02*
G03I-1120J0D01*
G37*
G36*
G01D02*
G03I-1120J0D01*
G37*
G54D10*
G01X17150Y5658D02*
X17500Y5367D01*
X17900Y5250D01*
X18300Y5367D01*
X18650Y5717D01*
X18900Y6242D01*
X19000Y6767D01*
Y7408D01*
X18900Y7933D01*
X18650Y8400D01*
X18350Y8633D01*
X18000Y8750D01*
X17600Y8633D01*
X17300Y8400D01*
X17100Y8050D01*
X17000Y7583D01*
X17100Y7175D01*
X17350Y6767D01*
X17650Y6533D01*
X18000Y6475D01*
X18400Y6592D01*
X18700Y6883D01*
X19000Y7408D01*
G01X7083Y26250D02*
Y23750D01*
X8417D01*
G01X10917D02*
X9583D01*
Y26250D01*
X10917D01*
G01X10383Y25042D02*
X9583D01*
G01X8483Y16042D02*
X8283Y16167D01*
X8050Y16250D01*
X7783D01*
X7483Y16125D01*
X7250Y15917D01*
X7083Y15667D01*
X6950Y15250D01*
X6917Y14875D01*
X6983Y14500D01*
X7083Y14250D01*
X7283Y14000D01*
X7517Y13833D01*
X7750Y13750D01*
X7983D01*
X8217Y13833D01*
X8417Y13958D01*
X8583Y14125D01*
G01X10917Y13750D02*
X9583D01*
Y16250D01*
X10917D01*
G01X10383Y15042D02*
X9583D01*
G01X6733Y46542D02*
X6533Y46667D01*
X6300Y46750D01*
X6033D01*
X5733Y46625D01*
X5500Y46417D01*
X5333Y46167D01*
X5200Y45750D01*
X5167Y45375D01*
X5233Y45000D01*
X5333Y44750D01*
X5533Y44500D01*
X5767Y44333D01*
X6000Y44250D01*
X6233D01*
X6467Y44333D01*
X6667Y44458D01*
X6833Y44625D01*
G01X7833Y46750D02*
Y44250D01*
X9167D01*
G01X10267D02*
Y46750D01*
G01X11533D02*
X10267Y45208D01*
G01X11733Y44250D02*
X10833Y45917D01*
G01X3583Y53750D02*
Y56250D01*
X4383D01*
X4650Y56125D01*
X4850Y55833D01*
X4917Y55500D01*
X4850Y55167D01*
X4683Y54917D01*
X4383Y54792D01*
X3583D01*
G01X6017Y53750D02*
Y56250D01*
X6683D01*
X6950Y56125D01*
X7150Y55958D01*
X7317Y55708D01*
X7450Y55417D01*
X7483Y55000D01*
X7450Y54583D01*
X7317Y54292D01*
X7150Y54042D01*
X6950Y53875D01*
X6683Y53750D01*
X6017D01*
G01X8583D02*
Y56250D01*
X9417D01*
X9683Y56125D01*
X9850Y55958D01*
X9917Y55625D01*
X9850Y55292D01*
X9650Y55083D01*
X9417Y54958D01*
X8583D01*
G01X9417D02*
X9917Y53750D01*
G01X11117D02*
Y56250D01*
X12383D01*
G01X11917Y55042D02*
X11117D01*
G01X3017Y33750D02*
Y36250D01*
X3683D01*
X3950Y36125D01*
X4150Y35958D01*
X4317Y35708D01*
X4450Y35417D01*
X4483Y35000D01*
X4450Y34583D01*
X4317Y34292D01*
X4150Y34042D01*
X3950Y33875D01*
X3683Y33750D01*
X3017D01*
G01X5417D02*
X6250Y36250D01*
X7083Y33750D01*
G01X6783Y34625D02*
X5717D01*
G01X8750Y36250D02*
Y33750D01*
G01X7983Y36250D02*
X9517D01*
G01X10417Y33750D02*
X11250Y36250D01*
X12083Y33750D01*
G01X11783Y34625D02*
X10717D01*
G01X6250Y60950D02*
X6500Y60600D01*
X6800Y60367D01*
X7150Y60250D01*
X7550Y60367D01*
X7850Y60600D01*
X8150Y60950D01*
X8250Y61417D01*
Y63750D01*
G01X9800Y63167D02*
X10100Y63517D01*
X10450Y63692D01*
X10850Y63750D01*
X11350Y63633D01*
X11700Y63342D01*
X11800Y62992D01*
X11750Y62642D01*
X11550Y62350D01*
X10550Y61767D01*
X10100Y61358D01*
X9800Y60775D01*
X9700Y60250D01*
X11800D01*
G01X18000Y61250D02*
Y64750D01*
X17400Y64050D01*
G01Y61250D02*
X18600D01*
G01X10650Y76250D02*
Y79750D01*
X11650D01*
X12050Y79575D01*
X12350Y79342D01*
X12600Y78992D01*
X12800Y78583D01*
X12850Y78000D01*
X12800Y77417D01*
X12600Y77008D01*
X12350Y76658D01*
X12050Y76425D01*
X11650Y76250D01*
X10650D01*
G01X14300Y79167D02*
X14600Y79517D01*
X14950Y79692D01*
X15350Y79750D01*
X15850Y79633D01*
X16200Y79342D01*
X16300Y78992D01*
X16250Y78642D01*
X16050Y78350D01*
X15050Y77767D01*
X14600Y77358D01*
X14300Y76775D01*
X14200Y76250D01*
X16300D01*
G01X13000Y68250D02*
Y71750D01*
X14250D01*
X14650Y71575D01*
X14900Y71342D01*
X15000Y70875D01*
X14900Y70408D01*
X14600Y70117D01*
X14250Y69942D01*
X13000D01*
G01X14250D02*
X15000Y68250D01*
G01X17500D02*
Y71750D01*
X16900Y71050D01*
G01Y68250D02*
X18100D01*
G01X21000Y71750D02*
X20600Y71633D01*
X20300Y71342D01*
X20100Y70992D01*
X19950Y70525D01*
X19900Y70000D01*
X19950Y69475D01*
X20100Y69008D01*
X20300Y68658D01*
X20600Y68367D01*
X21000Y68250D01*
X21400Y68367D01*
X21700Y68658D01*
X21900Y69008D01*
X22050Y69475D01*
X22100Y70000D01*
X22050Y70525D01*
X21900Y70992D01*
X21700Y71342D01*
X21400Y71633D01*
X21000Y71750D01*
G01X23000Y76250D02*
Y79750D01*
X24250D01*
X24650Y79575D01*
X24900Y79342D01*
X25000Y78875D01*
X24900Y78408D01*
X24600Y78117D01*
X24250Y77942D01*
X23000D01*
G01X24250D02*
X25000Y76250D01*
G01X26550Y79167D02*
X26850Y79517D01*
X27200Y79692D01*
X27600Y79750D01*
X28100Y79633D01*
X28450Y79342D01*
X28550Y78992D01*
X28500Y78642D01*
X28300Y78350D01*
X27300Y77767D01*
X26850Y77358D01*
X26550Y76775D01*
X26450Y76250D01*
X28550D01*
G01X30050Y79167D02*
X30350Y79517D01*
X30700Y79692D01*
X31100Y79750D01*
X31600Y79633D01*
X31950Y79342D01*
X32050Y78992D01*
X32000Y78642D01*
X31800Y78350D01*
X30800Y77767D01*
X30350Y77358D01*
X30050Y76775D01*
X29950Y76250D01*
X32050D01*
G01X17250Y122950D02*
X17500Y122600D01*
X17800Y122367D01*
X18150Y122250D01*
X18550Y122367D01*
X18850Y122600D01*
X19150Y122950D01*
X19250Y123417D01*
Y125750D01*
G01X21750Y122250D02*
Y125750D01*
X21150Y125050D01*
G01Y122250D02*
X22350D01*
G01X26250Y5250D02*
Y8750D01*
X25650Y8050D01*
G01Y5250D02*
X26850D01*
G01X29750Y8750D02*
X29350Y8633D01*
X29050Y8342D01*
X28850Y7992D01*
X28700Y7525D01*
X28650Y7000D01*
X28700Y6475D01*
X28850Y6008D01*
X29050Y5658D01*
X29350Y5367D01*
X29750Y5250D01*
X30150Y5367D01*
X30450Y5658D01*
X30650Y6008D01*
X30800Y6475D01*
X30850Y7000D01*
X30800Y7525D01*
X30650Y7992D01*
X30450Y8342D01*
X30150Y8633D01*
X29750Y8750D01*
G01X36750Y25883D02*
X34250D01*
X36333Y26750D01*
X34250Y27617D01*
X36750D01*
G01X34250Y28517D02*
X36042D01*
X36417Y28650D01*
X36667Y28917D01*
X36750Y29250D01*
X36667Y29583D01*
X36417Y29850D01*
X36042Y29983D01*
X34250D01*
G01X36750Y31050D02*
X34250Y32450D01*
G01Y31050D02*
X36750Y32450D01*
G01Y34250D02*
X36708Y33983D01*
X36542Y33750D01*
X36292Y33550D01*
X36000Y33417D01*
X35667Y33350D01*
X35333D01*
X35000Y33417D01*
X34708Y33550D01*
X34458Y33750D01*
X34292Y33983D01*
X34250Y34250D01*
X34292Y34517D01*
X34458Y34750D01*
X34708Y34950D01*
X35000Y35083D01*
X35333Y35150D01*
X35667D01*
X36000Y35083D01*
X36292Y34950D01*
X36542Y34750D01*
X36708Y34517D01*
X36750Y34250D01*
G01X34250Y36017D02*
X36042D01*
X36417Y36150D01*
X36667Y36417D01*
X36750Y36750D01*
X36667Y37083D01*
X36417Y37350D01*
X36042Y37483D01*
X34250D01*
G01Y39250D02*
X36750D01*
G01X34250Y38483D02*
Y40017D01*
G01X36750Y13917D02*
X34250Y14750D01*
X36750Y15583D01*
G01X35875Y15283D02*
Y14217D01*
G01X35500Y17450D02*
Y18117D01*
X36250D01*
X36500Y17917D01*
X36667Y17683D01*
X36750Y17350D01*
X36667Y17017D01*
X36500Y16783D01*
X36250Y16583D01*
X35958Y16450D01*
X35625Y16383D01*
X35333D01*
X35083Y16450D01*
X34792Y16583D01*
X34542Y16783D01*
X34375Y16983D01*
X34250Y17250D01*
Y17483D01*
X34333Y17750D01*
X34500Y17950D01*
G01X36750Y18983D02*
X34250D01*
X36750Y20517D01*
X34250D01*
G01X36750Y21517D02*
X34250D01*
Y22183D01*
X34375Y22450D01*
X34542Y22650D01*
X34792Y22817D01*
X35083Y22950D01*
X35500Y22983D01*
X35917Y22950D01*
X36208Y22817D01*
X36458Y22650D01*
X36625Y22450D01*
X36750Y22183D01*
Y21517D01*
G01X34083Y46250D02*
Y43750D01*
X35417D01*
G01X36517D02*
Y46250D01*
X37183D01*
X37450Y46125D01*
X37650Y45958D01*
X37817Y45708D01*
X37950Y45417D01*
X37983Y45000D01*
X37950Y44583D01*
X37817Y44292D01*
X37650Y44042D01*
X37450Y43875D01*
X37183Y43750D01*
X36517D01*
G01X36000Y52200D02*
Y52867D01*
X36750D01*
X37000Y52667D01*
X37167Y52433D01*
X37250Y52100D01*
X37167Y51767D01*
X37000Y51533D01*
X36750Y51333D01*
X36458Y51200D01*
X36125Y51133D01*
X35833D01*
X35583Y51200D01*
X35292Y51333D01*
X35042Y51533D01*
X34875Y51733D01*
X34750Y52000D01*
Y52233D01*
X34833Y52500D01*
X35000Y52700D01*
G01X37250Y53733D02*
X34750D01*
X37250Y55267D01*
X34750D01*
G01X37250Y56267D02*
X34750D01*
Y56933D01*
X34875Y57200D01*
X35042Y57400D01*
X35292Y57567D01*
X35583Y57700D01*
X36000Y57733D01*
X36417Y57700D01*
X36708Y57567D01*
X36958Y57400D01*
X37125Y57200D01*
X37250Y56933D01*
Y56267D01*
G01X27550Y64167D02*
X27850Y64517D01*
X28200Y64692D01*
X28600Y64750D01*
X29100Y64633D01*
X29450Y64342D01*
X29550Y63992D01*
X29500Y63642D01*
X29300Y63350D01*
X28300Y62767D01*
X27850Y62358D01*
X27550Y61775D01*
X27450Y61250D01*
X29550D01*
G01X44750Y74750D02*
Y76325D01*
X43750Y78250D01*
G01X45750D02*
X44750Y76325D01*
G01X48250Y74750D02*
Y78250D01*
X47650Y77550D01*
G01Y74750D02*
X48850D01*
G01X27350Y71458D02*
X27050Y71633D01*
X26700Y71750D01*
X26300D01*
X25850Y71575D01*
X25500Y71283D01*
X25250Y70933D01*
X25050Y70350D01*
X25000Y69825D01*
X25100Y69300D01*
X25250Y68950D01*
X25550Y68600D01*
X25900Y68367D01*
X26250Y68250D01*
X26600D01*
X26950Y68367D01*
X27250Y68542D01*
X27500Y68775D01*
G01X29750Y68250D02*
X30100Y68308D01*
X30500Y68483D01*
X30750Y68775D01*
X30850Y69183D01*
X30750Y69592D01*
X30450Y69942D01*
X30000Y70117D01*
X29500D01*
X29200Y70233D01*
X28950Y70525D01*
X28850Y70933D01*
X29000Y71342D01*
X29350Y71633D01*
X29750Y71750D01*
X30150Y71633D01*
X30500Y71342D01*
X30650Y70933D01*
X30550Y70525D01*
X30300Y70233D01*
X30000Y70117D01*
X29500D01*
X29050Y69942D01*
X28750Y69592D01*
X28650Y69183D01*
X28750Y68775D01*
X29000Y68483D01*
X29400Y68308D01*
X29750Y68250D01*
G01X36850Y92958D02*
X36550Y93133D01*
X36200Y93250D01*
X35800D01*
X35350Y93075D01*
X35000Y92783D01*
X34750Y92433D01*
X34550Y91850D01*
X34500Y91325D01*
X34600Y90800D01*
X34750Y90450D01*
X35050Y90100D01*
X35400Y89867D01*
X35750Y89750D01*
X36100D01*
X36450Y89867D01*
X36750Y90042D01*
X37000Y90275D01*
G01X38150Y90450D02*
X38450Y90042D01*
X38850Y89808D01*
X39300Y89750D01*
X39700Y89808D01*
X40100Y90100D01*
X40350Y90450D01*
X40400Y90800D01*
X40300Y91208D01*
X39950Y91500D01*
X39600Y91617D01*
X39150D01*
G01X39600D02*
X39900Y91792D01*
X40150Y92083D01*
X40250Y92433D01*
X40150Y92783D01*
X39900Y93075D01*
X39450Y93250D01*
X39000Y93192D01*
X38550Y92958D01*
G01X39517Y107250D02*
X41117D01*
G01X40250Y108225D02*
Y106275D01*
G01X43083Y110250D02*
X44750Y105750D01*
X46417Y110250D01*
G01X50717Y109875D02*
X50317Y110100D01*
X49850Y110250D01*
X49317D01*
X48717Y110025D01*
X48250Y109650D01*
X47917Y109200D01*
X47650Y108450D01*
X47583Y107775D01*
X47717Y107100D01*
X47917Y106650D01*
X48317Y106200D01*
X48783Y105900D01*
X49250Y105750D01*
X49717D01*
X50183Y105900D01*
X50583Y106125D01*
X50917Y106425D01*
G01X55217Y109875D02*
X54817Y110100D01*
X54350Y110250D01*
X53817D01*
X53217Y110025D01*
X52750Y109650D01*
X52417Y109200D01*
X52150Y108450D01*
X52083Y107775D01*
X52217Y107100D01*
X52417Y106650D01*
X52817Y106200D01*
X53283Y105900D01*
X53750Y105750D01*
X54217D01*
X54683Y105900D01*
X55083Y106125D01*
X55417Y106425D01*
G01X54750Y4750D02*
Y8250D01*
X56000D01*
X56400Y8075D01*
X56650Y7842D01*
X56750Y7375D01*
X56650Y6908D01*
X56350Y6617D01*
X56000Y6442D01*
X54750D01*
G01X56000D02*
X56750Y4750D01*
G01X58150Y5275D02*
X58450Y4983D01*
X58800Y4808D01*
X59250Y4750D01*
X59700Y4867D01*
X60050Y5100D01*
X60300Y5508D01*
X60350Y5975D01*
X60250Y6442D01*
X60000Y6733D01*
X59650Y6967D01*
X59300Y7025D01*
X58950Y6967D01*
X58500Y6733D01*
X58650Y8250D01*
X60000D01*
G01X54500Y22250D02*
Y25750D01*
X55750D01*
X56150Y25575D01*
X56400Y25342D01*
X56500Y24875D01*
X56400Y24408D01*
X56100Y24117D01*
X55750Y23942D01*
X54500D01*
G01X55750D02*
X56500Y22250D01*
G01X58050Y25167D02*
X58350Y25517D01*
X58700Y25692D01*
X59100Y25750D01*
X59600Y25633D01*
X59950Y25342D01*
X60050Y24992D01*
X60000Y24642D01*
X59800Y24350D01*
X58800Y23767D01*
X58350Y23358D01*
X58050Y22775D01*
X57950Y22250D01*
X60050D01*
G01X61400Y22950D02*
X61700Y22542D01*
X62100Y22308D01*
X62550Y22250D01*
X62950Y22308D01*
X63350Y22600D01*
X63600Y22950D01*
X63650Y23300D01*
X63550Y23708D01*
X63200Y24000D01*
X62850Y24117D01*
X62400D01*
G01X62850D02*
X63150Y24292D01*
X63400Y24583D01*
X63500Y24933D01*
X63400Y25283D01*
X63150Y25575D01*
X62700Y25750D01*
X62250Y25692D01*
X61800Y25458D01*
G01X54750Y10250D02*
Y13750D01*
X56000D01*
X56400Y13575D01*
X56650Y13342D01*
X56750Y12875D01*
X56650Y12408D01*
X56350Y12117D01*
X56000Y11942D01*
X54750D01*
G01X56000D02*
X56750Y10250D01*
G01X58400Y10658D02*
X58750Y10367D01*
X59150Y10250D01*
X59550Y10367D01*
X59900Y10717D01*
X60150Y11242D01*
X60250Y11767D01*
Y12408D01*
X60150Y12933D01*
X59900Y13400D01*
X59600Y13633D01*
X59250Y13750D01*
X58850Y13633D01*
X58550Y13400D01*
X58350Y13050D01*
X58250Y12583D01*
X58350Y12175D01*
X58600Y11767D01*
X58900Y11533D01*
X59250Y11475D01*
X59650Y11592D01*
X59950Y11883D01*
X60250Y12408D01*
G01X54750Y28750D02*
Y32250D01*
X56000D01*
X56400Y32075D01*
X56650Y31842D01*
X56750Y31375D01*
X56650Y30908D01*
X56350Y30617D01*
X56000Y30442D01*
X54750D01*
G01X56000D02*
X56750Y28750D01*
G01X58300Y30208D02*
X58650Y30617D01*
X58950Y30850D01*
X59350Y30967D01*
X59700Y30850D01*
X59950Y30617D01*
X60150Y30267D01*
X60200Y29858D01*
X60150Y29508D01*
X59950Y29158D01*
X59650Y28867D01*
X59300Y28750D01*
X58900Y28867D01*
X58550Y29217D01*
X58350Y29742D01*
X58300Y30325D01*
X58400Y31083D01*
X58550Y31492D01*
X58800Y31900D01*
X59150Y32192D01*
X59500Y32250D01*
X59850Y32133D01*
X60100Y31842D01*
G01X54750Y16250D02*
Y19750D01*
X56000D01*
X56400Y19575D01*
X56650Y19342D01*
X56750Y18875D01*
X56650Y18408D01*
X56350Y18117D01*
X56000Y17942D01*
X54750D01*
G01X56000D02*
X56750Y16250D01*
G01X59250D02*
X59600Y16308D01*
X60000Y16483D01*
X60250Y16775D01*
X60350Y17183D01*
X60250Y17592D01*
X59950Y17942D01*
X59500Y18117D01*
X59000D01*
X58700Y18233D01*
X58450Y18525D01*
X58350Y18933D01*
X58500Y19342D01*
X58850Y19633D01*
X59250Y19750D01*
X59650Y19633D01*
X60000Y19342D01*
X60150Y18933D01*
X60050Y18525D01*
X59800Y18233D01*
X59500Y18117D01*
X59000D01*
X58550Y17942D01*
X58250Y17592D01*
X58150Y17183D01*
X58250Y16775D01*
X58500Y16483D01*
X58900Y16308D01*
X59250Y16250D01*
G01X54500Y46750D02*
Y50250D01*
X55750D01*
X56150Y50075D01*
X56400Y49842D01*
X56500Y49375D01*
X56400Y48908D01*
X56100Y48617D01*
X55750Y48442D01*
X54500D01*
G01X55750D02*
X56500Y46750D01*
G01X58050Y49667D02*
X58350Y50017D01*
X58700Y50192D01*
X59100Y50250D01*
X59600Y50133D01*
X59950Y49842D01*
X60050Y49492D01*
X60000Y49142D01*
X59800Y48850D01*
X58800Y48267D01*
X58350Y47858D01*
X58050Y47275D01*
X57950Y46750D01*
X60050D01*
G01X62500D02*
Y50250D01*
X61900Y49550D01*
G01Y46750D02*
X63100D01*
G01X68750Y36500D02*
X65250D01*
Y37750D01*
X65425Y38150D01*
X65658Y38400D01*
X66125Y38500D01*
X66592Y38400D01*
X66883Y38100D01*
X67058Y37750D01*
Y36500D01*
G01Y37750D02*
X68750Y38500D01*
G01Y41000D02*
X65250D01*
X65950Y40400D01*
G01X68750D02*
Y41600D01*
G01Y44500D02*
X65250D01*
X65950Y43900D01*
G01X68750D02*
Y45100D01*
G01X54500Y40750D02*
Y44250D01*
X55750D01*
X56150Y44075D01*
X56400Y43842D01*
X56500Y43375D01*
X56400Y42908D01*
X56100Y42617D01*
X55750Y42442D01*
X54500D01*
G01X55750D02*
X56500Y40750D01*
G01X58050Y43667D02*
X58350Y44017D01*
X58700Y44192D01*
X59100Y44250D01*
X59600Y44133D01*
X59950Y43842D01*
X60050Y43492D01*
X60000Y43142D01*
X59800Y42850D01*
X58800Y42267D01*
X58350Y41858D01*
X58050Y41275D01*
X57950Y40750D01*
X60050D01*
G01X62500Y44250D02*
X62100Y44133D01*
X61800Y43842D01*
X61600Y43492D01*
X61450Y43025D01*
X61400Y42500D01*
X61450Y41975D01*
X61600Y41508D01*
X61800Y41158D01*
X62100Y40867D01*
X62500Y40750D01*
X62900Y40867D01*
X63200Y41158D01*
X63400Y41508D01*
X63550Y41975D01*
X63600Y42500D01*
X63550Y43025D01*
X63400Y43492D01*
X63200Y43842D01*
X62900Y44133D01*
X62500Y44250D01*
G01X54750Y34750D02*
Y38250D01*
X56000D01*
X56400Y38075D01*
X56650Y37842D01*
X56750Y37375D01*
X56650Y36908D01*
X56350Y36617D01*
X56000Y36442D01*
X54750D01*
G01X56000D02*
X56750Y34750D01*
G01X59150D02*
X59250Y35508D01*
X59400Y36150D01*
X59600Y36733D01*
X59850Y37375D01*
X60250Y38250D01*
X58250D01*
G01X66850Y76958D02*
X66550Y77133D01*
X66200Y77250D01*
X65800D01*
X65350Y77075D01*
X65000Y76783D01*
X64750Y76433D01*
X64550Y75850D01*
X64500Y75325D01*
X64600Y74800D01*
X64750Y74450D01*
X65050Y74100D01*
X65400Y73867D01*
X65750Y73750D01*
X66100D01*
X66450Y73867D01*
X66750Y74042D01*
X67000Y74275D01*
G01X69150Y73750D02*
X69250Y74508D01*
X69400Y75150D01*
X69600Y75733D01*
X69850Y76375D01*
X70250Y77250D01*
X68250D01*
G01X66850Y81958D02*
X66550Y82133D01*
X66200Y82250D01*
X65800D01*
X65350Y82075D01*
X65000Y81783D01*
X64750Y81433D01*
X64550Y80850D01*
X64500Y80325D01*
X64600Y79800D01*
X64750Y79450D01*
X65050Y79100D01*
X65400Y78867D01*
X65750Y78750D01*
X66100D01*
X66450Y78867D01*
X66750Y79042D01*
X67000Y79275D01*
G01X68300Y80208D02*
X68650Y80617D01*
X68950Y80850D01*
X69350Y80967D01*
X69700Y80850D01*
X69950Y80617D01*
X70150Y80267D01*
X70200Y79858D01*
X70150Y79508D01*
X69950Y79158D01*
X69650Y78867D01*
X69300Y78750D01*
X68900Y78867D01*
X68550Y79217D01*
X68350Y79742D01*
X68300Y80325D01*
X68400Y81083D01*
X68550Y81492D01*
X68800Y81900D01*
X69150Y82192D01*
X69500Y82250D01*
X69850Y82133D01*
X70100Y81842D01*
G01X60542Y88350D02*
X60367Y88050D01*
X60250Y87700D01*
Y87300D01*
X60425Y86850D01*
X60717Y86500D01*
X61067Y86250D01*
X61650Y86050D01*
X62175Y86000D01*
X62700Y86100D01*
X63050Y86250D01*
X63400Y86550D01*
X63633Y86900D01*
X63750Y87250D01*
Y87600D01*
X63633Y87950D01*
X63458Y88250D01*
X63225Y88500D01*
G01X63750Y91350D02*
X60250D01*
X62758Y89500D01*
Y92000D01*
G01X54000Y101750D02*
Y98250D01*
X56000D01*
G01X58900Y100117D02*
X59100Y100292D01*
X59250Y100583D01*
X59350Y100992D01*
X59250Y101342D01*
X59050Y101575D01*
X58700Y101750D01*
X57350D01*
Y98250D01*
X59000D01*
X59350Y98483D01*
X59550Y98833D01*
X59650Y99242D01*
X59550Y99650D01*
X59250Y100000D01*
X58900Y100117D01*
X57350D01*
G01X62000Y98250D02*
Y101750D01*
X61400Y101050D01*
G01Y98250D02*
X62600D01*
G01X53250Y79000D02*
X56750D01*
Y81000D01*
G01X54883Y83900D02*
X54708Y84100D01*
X54417Y84250D01*
X54008Y84350D01*
X53658Y84250D01*
X53425Y84050D01*
X53250Y83700D01*
Y82350D01*
X56750D01*
Y84000D01*
X56517Y84350D01*
X56167Y84550D01*
X55758Y84650D01*
X55350Y84550D01*
X55000Y84250D01*
X54883Y83900D01*
Y82350D01*
G01X53833Y86050D02*
X53483Y86350D01*
X53308Y86700D01*
X53250Y87100D01*
X53367Y87600D01*
X53658Y87950D01*
X54008Y88050D01*
X54358Y88000D01*
X54650Y87800D01*
X55233Y86800D01*
X55642Y86350D01*
X56225Y86050D01*
X56750Y85950D01*
Y88050D01*
G01X64250Y104750D02*
X60750D01*
Y106000D01*
X60925Y106400D01*
X61158Y106650D01*
X61625Y106750D01*
X62092Y106650D01*
X62383Y106350D01*
X62558Y106000D01*
Y104750D01*
G01Y106000D02*
X64250Y106750D01*
G01X63550Y108150D02*
X63958Y108450D01*
X64192Y108850D01*
X64250Y109300D01*
X64192Y109700D01*
X63900Y110100D01*
X63550Y110350D01*
X63200Y110400D01*
X62792Y110300D01*
X62500Y109950D01*
X62383Y109600D01*
Y109150D01*
G01Y109600D02*
X62208Y109900D01*
X61917Y110150D01*
X61567Y110250D01*
X61217Y110150D01*
X60925Y109900D01*
X60750Y109450D01*
X60808Y109000D01*
X61042Y108550D01*
G01X84042Y12100D02*
X83867Y11800D01*
X83750Y11450D01*
Y11050D01*
X83925Y10600D01*
X84217Y10250D01*
X84567Y10000D01*
X85150Y9800D01*
X85675Y9750D01*
X86200Y9850D01*
X86550Y10000D01*
X86900Y10300D01*
X87133Y10650D01*
X87250Y11000D01*
Y11350D01*
X87133Y11700D01*
X86958Y12000D01*
X86725Y12250D01*
G01X87250Y14500D02*
X83750D01*
X84450Y13900D01*
G01X87250D02*
Y15100D01*
G01X83750Y18000D02*
X83867Y17600D01*
X84158Y17300D01*
X84508Y17100D01*
X84975Y16950D01*
X85500Y16900D01*
X86025Y16950D01*
X86492Y17100D01*
X86842Y17300D01*
X87133Y17600D01*
X87250Y18000D01*
X87133Y18400D01*
X86842Y18700D01*
X86492Y18900D01*
X86025Y19050D01*
X85500Y19100D01*
X84975Y19050D01*
X84508Y18900D01*
X84158Y18700D01*
X83867Y18400D01*
X83750Y18000D01*
G01X91000Y22750D02*
Y26250D01*
X92250D01*
X92650Y26075D01*
X92900Y25842D01*
X93000Y25375D01*
X92900Y24908D01*
X92600Y24617D01*
X92250Y24442D01*
X91000D01*
G01X92250D02*
X93000Y22750D01*
G01X95500D02*
Y26250D01*
X94900Y25550D01*
G01Y22750D02*
X96100D01*
G01X98050Y25667D02*
X98350Y26017D01*
X98700Y26192D01*
X99100Y26250D01*
X99600Y26133D01*
X99950Y25842D01*
X100050Y25492D01*
X100000Y25142D01*
X99800Y24850D01*
X98800Y24267D01*
X98350Y23858D01*
X98050Y23275D01*
X97950Y22750D01*
X100050D01*
G01X77600Y49958D02*
X77300Y50133D01*
X76950Y50250D01*
X76550D01*
X76100Y50075D01*
X75750Y49783D01*
X75500Y49433D01*
X75300Y48850D01*
X75250Y48325D01*
X75350Y47800D01*
X75500Y47450D01*
X75800Y47100D01*
X76150Y46867D01*
X76500Y46750D01*
X76850D01*
X77200Y46867D01*
X77500Y47042D01*
X77750Y47275D01*
G01X80000Y46750D02*
Y50250D01*
X79400Y49550D01*
G01Y46750D02*
X80600D01*
G01X82400Y47450D02*
X82700Y47042D01*
X83100Y46808D01*
X83550Y46750D01*
X83950Y46808D01*
X84350Y47100D01*
X84600Y47450D01*
X84650Y47800D01*
X84550Y48208D01*
X84200Y48500D01*
X83850Y48617D01*
X83400D01*
G01X83850D02*
X84150Y48792D01*
X84400Y49083D01*
X84500Y49433D01*
X84400Y49783D01*
X84150Y50075D01*
X83700Y50250D01*
X83250Y50192D01*
X82800Y49958D01*
G01X77600Y44958D02*
X77300Y45133D01*
X76950Y45250D01*
X76550D01*
X76100Y45075D01*
X75750Y44783D01*
X75500Y44433D01*
X75300Y43850D01*
X75250Y43325D01*
X75350Y42800D01*
X75500Y42450D01*
X75800Y42100D01*
X76150Y41867D01*
X76500Y41750D01*
X76850D01*
X77200Y41867D01*
X77500Y42042D01*
X77750Y42275D01*
G01X80000Y41750D02*
Y45250D01*
X79400Y44550D01*
G01Y41750D02*
X80600D01*
G01X84100D02*
Y45250D01*
X82250Y42742D01*
X84750D01*
G01X84850Y56958D02*
X84550Y57133D01*
X84200Y57250D01*
X83800D01*
X83350Y57075D01*
X83000Y56783D01*
X82750Y56433D01*
X82550Y55850D01*
X82500Y55325D01*
X82600Y54800D01*
X82750Y54450D01*
X83050Y54100D01*
X83400Y53867D01*
X83750Y53750D01*
X84100D01*
X84450Y53867D01*
X84750Y54042D01*
X85000Y54275D01*
G01X86400Y54158D02*
X86750Y53867D01*
X87150Y53750D01*
X87550Y53867D01*
X87900Y54217D01*
X88150Y54742D01*
X88250Y55267D01*
Y55908D01*
X88150Y56433D01*
X87900Y56900D01*
X87600Y57133D01*
X87250Y57250D01*
X86850Y57133D01*
X86550Y56900D01*
X86350Y56550D01*
X86250Y56083D01*
X86350Y55675D01*
X86600Y55267D01*
X86900Y55033D01*
X87250Y54975D01*
X87650Y55092D01*
X87950Y55383D01*
X88250Y55908D01*
G01X95600Y72458D02*
X95300Y72633D01*
X94950Y72750D01*
X94550D01*
X94100Y72575D01*
X93750Y72283D01*
X93500Y71933D01*
X93300Y71350D01*
X93250Y70825D01*
X93350Y70300D01*
X93500Y69950D01*
X93800Y69600D01*
X94150Y69367D01*
X94500Y69250D01*
X94850D01*
X95200Y69367D01*
X95500Y69542D01*
X95750Y69775D01*
G01X96900Y69950D02*
X97200Y69542D01*
X97600Y69308D01*
X98050Y69250D01*
X98450Y69308D01*
X98850Y69600D01*
X99100Y69950D01*
X99150Y70300D01*
X99050Y70708D01*
X98700Y71000D01*
X98350Y71117D01*
X97900D01*
G01X98350D02*
X98650Y71292D01*
X98900Y71583D01*
X99000Y71933D01*
X98900Y72283D01*
X98650Y72575D01*
X98200Y72750D01*
X97750Y72692D01*
X97300Y72458D01*
G01X100400Y69950D02*
X100700Y69542D01*
X101100Y69308D01*
X101550Y69250D01*
X101950Y69308D01*
X102350Y69600D01*
X102600Y69950D01*
X102650Y70300D01*
X102550Y70708D01*
X102200Y71000D01*
X101850Y71117D01*
X101400D01*
G01X101850D02*
X102150Y71292D01*
X102400Y71583D01*
X102500Y71933D01*
X102400Y72283D01*
X102150Y72575D01*
X101700Y72750D01*
X101250Y72692D01*
X100800Y72458D01*
G01X73500Y73750D02*
Y77250D01*
X74750D01*
X75150Y77075D01*
X75400Y76842D01*
X75500Y76375D01*
X75400Y75908D01*
X75100Y75617D01*
X74750Y75442D01*
X73500D01*
G01X74750D02*
X75500Y73750D01*
G01X78000D02*
Y77250D01*
X77400Y76550D01*
G01Y73750D02*
X78600D01*
G01X80550Y75208D02*
X80900Y75617D01*
X81200Y75850D01*
X81600Y75967D01*
X81950Y75850D01*
X82200Y75617D01*
X82400Y75267D01*
X82450Y74858D01*
X82400Y74508D01*
X82200Y74158D01*
X81900Y73867D01*
X81550Y73750D01*
X81150Y73867D01*
X80800Y74217D01*
X80600Y74742D01*
X80550Y75325D01*
X80650Y76083D01*
X80800Y76492D01*
X81050Y76900D01*
X81400Y77192D01*
X81750Y77250D01*
X82100Y77133D01*
X82350Y76842D01*
G01X72150Y92750D02*
Y90242D01*
X72350Y89717D01*
X72750Y89367D01*
X73250Y89250D01*
X73750Y89367D01*
X74150Y89717D01*
X74350Y90242D01*
Y92750D01*
G01X75800Y92167D02*
X76100Y92517D01*
X76450Y92692D01*
X76850Y92750D01*
X77350Y92633D01*
X77700Y92342D01*
X77800Y91992D01*
X77750Y91642D01*
X77550Y91350D01*
X76550Y90767D01*
X76100Y90358D01*
X75800Y89775D01*
X75700Y89250D01*
X77800D01*
G01X85042Y101350D02*
X84867Y101050D01*
X84750Y100700D01*
Y100300D01*
X84925Y99850D01*
X85217Y99500D01*
X85567Y99250D01*
X86150Y99050D01*
X86675Y99000D01*
X87200Y99100D01*
X87550Y99250D01*
X87900Y99550D01*
X88133Y99900D01*
X88250Y100250D01*
Y100600D01*
X88133Y100950D01*
X87958Y101250D01*
X87725Y101500D01*
G01Y102650D02*
X88017Y102950D01*
X88192Y103300D01*
X88250Y103750D01*
X88133Y104200D01*
X87900Y104550D01*
X87492Y104800D01*
X87025Y104850D01*
X86558Y104750D01*
X86267Y104500D01*
X86033Y104150D01*
X85975Y103800D01*
X86033Y103450D01*
X86267Y103000D01*
X84750Y103150D01*
Y104500D01*
G01X73650Y78750D02*
Y82250D01*
X74650D01*
X75050Y82075D01*
X75350Y81842D01*
X75600Y81492D01*
X75800Y81083D01*
X75850Y80500D01*
X75800Y79917D01*
X75600Y79508D01*
X75350Y79158D01*
X75050Y78925D01*
X74650Y78750D01*
X73650D01*
G01X78250D02*
Y82250D01*
X77650Y81550D01*
G01Y78750D02*
X78850D01*
G01X84250Y107250D02*
Y110750D01*
X85500D01*
X85900Y110575D01*
X86150Y110342D01*
X86250Y109875D01*
X86150Y109408D01*
X85850Y109117D01*
X85500Y108942D01*
X84250D01*
G01X85500D02*
X86250Y107250D01*
G01X89350D02*
Y110750D01*
X87500Y108242D01*
X90000D01*
G01X118750Y10000D02*
X115250D01*
Y11250D01*
X115425Y11650D01*
X115658Y11900D01*
X116125Y12000D01*
X116592Y11900D01*
X116883Y11600D01*
X117058Y11250D01*
Y10000D01*
G01Y11250D02*
X118750Y12000D01*
G01Y14500D02*
X115250D01*
X115950Y13900D01*
G01X118750D02*
Y15100D01*
G01Y18600D02*
X115250D01*
X117758Y16750D01*
Y19250D01*
G01X101250Y10000D02*
X97750D01*
Y11250D01*
X97925Y11650D01*
X98158Y11900D01*
X98625Y12000D01*
X99092Y11900D01*
X99383Y11600D01*
X99558Y11250D01*
Y10000D01*
G01Y11250D02*
X101250Y12000D01*
G01Y14500D02*
X97750D01*
X98450Y13900D01*
G01X101250D02*
Y15100D01*
G01X100550Y16900D02*
X100958Y17200D01*
X101192Y17600D01*
X101250Y18050D01*
X101192Y18450D01*
X100900Y18850D01*
X100550Y19100D01*
X100200Y19150D01*
X99792Y19050D01*
X99500Y18700D01*
X99383Y18350D01*
Y17900D01*
G01Y18350D02*
X99208Y18650D01*
X98917Y18900D01*
X98567Y19000D01*
X98217Y18900D01*
X97925Y18650D01*
X97750Y18200D01*
X97808Y17750D01*
X98042Y17300D01*
G01X112750Y10000D02*
X109250D01*
Y11250D01*
X109425Y11650D01*
X109658Y11900D01*
X110125Y12000D01*
X110592Y11900D01*
X110883Y11600D01*
X111058Y11250D01*
Y10000D01*
G01Y11250D02*
X112750Y12000D01*
G01Y14500D02*
X109250D01*
X109950Y13900D01*
G01X112750D02*
Y15100D01*
G01X112225Y16900D02*
X112517Y17200D01*
X112692Y17550D01*
X112750Y18000D01*
X112633Y18450D01*
X112400Y18800D01*
X111992Y19050D01*
X111525Y19100D01*
X111058Y19000D01*
X110767Y18750D01*
X110533Y18400D01*
X110475Y18050D01*
X110533Y17700D01*
X110767Y17250D01*
X109250Y17400D01*
Y18750D01*
G01X111150Y42750D02*
Y40242D01*
X111350Y39717D01*
X111750Y39367D01*
X112250Y39250D01*
X112750Y39367D01*
X113150Y39717D01*
X113350Y40242D01*
Y42750D01*
G01X114650Y39950D02*
X114950Y39542D01*
X115350Y39308D01*
X115800Y39250D01*
X116200Y39308D01*
X116600Y39600D01*
X116850Y39950D01*
X116900Y40300D01*
X116800Y40708D01*
X116450Y41000D01*
X116100Y41117D01*
X115650D01*
G01X116100D02*
X116400Y41292D01*
X116650Y41583D01*
X116750Y41933D01*
X116650Y42283D01*
X116400Y42575D01*
X115950Y42750D01*
X115500Y42692D01*
X115050Y42458D01*
G01X103542Y36100D02*
X103367Y35800D01*
X103250Y35450D01*
Y35050D01*
X103425Y34600D01*
X103717Y34250D01*
X104067Y34000D01*
X104650Y33800D01*
X105175Y33750D01*
X105700Y33850D01*
X106050Y34000D01*
X106400Y34300D01*
X106633Y34650D01*
X106750Y35000D01*
Y35350D01*
X106633Y35700D01*
X106458Y36000D01*
X106225Y36250D01*
G01X106750Y38500D02*
X103250D01*
X103950Y37900D01*
G01X106750D02*
Y39100D01*
G01Y42000D02*
X103250D01*
X103950Y41400D01*
G01X106750D02*
Y42600D01*
G01X96100Y55958D02*
X95800Y56133D01*
X95450Y56250D01*
X95050D01*
X94600Y56075D01*
X94250Y55783D01*
X94000Y55433D01*
X93800Y54850D01*
X93750Y54325D01*
X93850Y53800D01*
X94000Y53450D01*
X94300Y53100D01*
X94650Y52867D01*
X95000Y52750D01*
X95350D01*
X95700Y52867D01*
X96000Y53042D01*
X96250Y53275D01*
G01X97400Y53450D02*
X97700Y53042D01*
X98100Y52808D01*
X98550Y52750D01*
X98950Y52808D01*
X99350Y53100D01*
X99600Y53450D01*
X99650Y53800D01*
X99550Y54208D01*
X99200Y54500D01*
X98850Y54617D01*
X98400D01*
G01X98850D02*
X99150Y54792D01*
X99400Y55083D01*
X99500Y55433D01*
X99400Y55783D01*
X99150Y56075D01*
X98700Y56250D01*
X98250Y56192D01*
X97800Y55958D01*
G01X101050Y55667D02*
X101350Y56017D01*
X101700Y56192D01*
X102100Y56250D01*
X102600Y56133D01*
X102950Y55842D01*
X103050Y55492D01*
X103000Y55142D01*
X102800Y54850D01*
X101800Y54267D01*
X101350Y53858D01*
X101050Y53275D01*
X100950Y52750D01*
X103050D01*
G01X110150Y93250D02*
Y90742D01*
X110350Y90217D01*
X110750Y89867D01*
X111250Y89750D01*
X111750Y89867D01*
X112150Y90217D01*
X112350Y90742D01*
Y93250D01*
G01X114750Y89750D02*
Y93250D01*
X114150Y92550D01*
G01Y89750D02*
X115350D01*
G01X98042Y91850D02*
X97867Y91550D01*
X97750Y91200D01*
Y90800D01*
X97925Y90350D01*
X98217Y90000D01*
X98567Y89750D01*
X99150Y89550D01*
X99675Y89500D01*
X100200Y89600D01*
X100550Y89750D01*
X100900Y90050D01*
X101133Y90400D01*
X101250Y90750D01*
Y91100D01*
X101133Y91450D01*
X100958Y91750D01*
X100725Y92000D01*
G01X101250Y94250D02*
X97750D01*
X98450Y93650D01*
G01X101250D02*
Y94850D01*
G01Y103250D02*
X97750D01*
Y104500D01*
X97925Y104900D01*
X98158Y105150D01*
X98625Y105250D01*
X99092Y105150D01*
X99383Y104850D01*
X99558Y104500D01*
Y103250D01*
G01Y104500D02*
X101250Y105250D01*
G01Y107750D02*
X97750D01*
X98450Y107150D01*
G01X101250D02*
Y108350D01*
G01X121542Y12100D02*
X121367Y11800D01*
X121250Y11450D01*
Y11050D01*
X121425Y10600D01*
X121717Y10250D01*
X122067Y10000D01*
X122650Y9800D01*
X123175Y9750D01*
X123700Y9850D01*
X124050Y10000D01*
X124400Y10300D01*
X124633Y10650D01*
X124750Y11000D01*
Y11350D01*
X124633Y11700D01*
X124458Y12000D01*
X124225Y12250D01*
G01X124750Y14500D02*
X121250D01*
X121950Y13900D01*
G01X124750D02*
Y15100D01*
G01X121833Y17050D02*
X121483Y17350D01*
X121308Y17700D01*
X121250Y18100D01*
X121367Y18600D01*
X121658Y18950D01*
X122008Y19050D01*
X122358Y19000D01*
X122650Y18800D01*
X123233Y17800D01*
X123642Y17350D01*
X124225Y17050D01*
X124750Y16950D01*
Y19050D01*
G01X127542Y12100D02*
X127367Y11800D01*
X127250Y11450D01*
Y11050D01*
X127425Y10600D01*
X127717Y10250D01*
X128067Y10000D01*
X128650Y9800D01*
X129175Y9750D01*
X129700Y9850D01*
X130050Y10000D01*
X130400Y10300D01*
X130633Y10650D01*
X130750Y11000D01*
Y11350D01*
X130633Y11700D01*
X130458Y12000D01*
X130225Y12250D01*
G01X130050Y13400D02*
X130458Y13700D01*
X130692Y14100D01*
X130750Y14550D01*
X130692Y14950D01*
X130400Y15350D01*
X130050Y15600D01*
X129700Y15650D01*
X129292Y15550D01*
X129000Y15200D01*
X128883Y14850D01*
Y14400D01*
G01Y14850D02*
X128708Y15150D01*
X128417Y15400D01*
X128067Y15500D01*
X127717Y15400D01*
X127425Y15150D01*
X127250Y14700D01*
X127308Y14250D01*
X127542Y13800D01*
G01X130750Y18000D02*
X127250D01*
X127950Y17400D01*
G01X130750D02*
Y18600D01*
G01X133542Y12100D02*
X133367Y11800D01*
X133250Y11450D01*
Y11050D01*
X133425Y10600D01*
X133717Y10250D01*
X134067Y10000D01*
X134650Y9800D01*
X135175Y9750D01*
X135700Y9850D01*
X136050Y10000D01*
X136400Y10300D01*
X136633Y10650D01*
X136750Y11000D01*
Y11350D01*
X136633Y11700D01*
X136458Y12000D01*
X136225Y12250D01*
G01X136050Y13400D02*
X136458Y13700D01*
X136692Y14100D01*
X136750Y14550D01*
X136692Y14950D01*
X136400Y15350D01*
X136050Y15600D01*
X135700Y15650D01*
X135292Y15550D01*
X135000Y15200D01*
X134883Y14850D01*
Y14400D01*
G01Y14850D02*
X134708Y15150D01*
X134417Y15400D01*
X134067Y15500D01*
X133717Y15400D01*
X133425Y15150D01*
X133250Y14700D01*
X133308Y14250D01*
X133542Y13800D01*
G01X133250Y18000D02*
X133367Y17600D01*
X133658Y17300D01*
X134008Y17100D01*
X134475Y16950D01*
X135000Y16900D01*
X135525Y16950D01*
X135992Y17100D01*
X136342Y17300D01*
X136633Y17600D01*
X136750Y18000D01*
X136633Y18400D01*
X136342Y18700D01*
X135992Y18900D01*
X135525Y19050D01*
X135000Y19100D01*
X134475Y19050D01*
X134008Y18900D01*
X133658Y18700D01*
X133367Y18400D01*
X133250Y18000D01*
G01X140600Y38958D02*
X140300Y39133D01*
X139950Y39250D01*
X139550D01*
X139100Y39075D01*
X138750Y38783D01*
X138500Y38433D01*
X138300Y37850D01*
X138250Y37325D01*
X138350Y36800D01*
X138500Y36450D01*
X138800Y36100D01*
X139150Y35867D01*
X139500Y35750D01*
X139850D01*
X140200Y35867D01*
X140500Y36042D01*
X140750Y36275D01*
G01X143000Y35750D02*
Y39250D01*
X142400Y38550D01*
G01Y35750D02*
X143600D01*
G01X145400Y36275D02*
X145700Y35983D01*
X146050Y35808D01*
X146500Y35750D01*
X146950Y35867D01*
X147300Y36100D01*
X147550Y36508D01*
X147600Y36975D01*
X147500Y37442D01*
X147250Y37733D01*
X146900Y37967D01*
X146550Y38025D01*
X146200Y37967D01*
X145750Y37733D01*
X145900Y39250D01*
X147250D01*
G01X140600Y34458D02*
X140300Y34633D01*
X139950Y34750D01*
X139550D01*
X139100Y34575D01*
X138750Y34283D01*
X138500Y33933D01*
X138300Y33350D01*
X138250Y32825D01*
X138350Y32300D01*
X138500Y31950D01*
X138800Y31600D01*
X139150Y31367D01*
X139500Y31250D01*
X139850D01*
X140200Y31367D01*
X140500Y31542D01*
X140750Y31775D01*
G01X143000Y31250D02*
Y34750D01*
X142400Y34050D01*
G01Y31250D02*
X143600D01*
G01X145550Y32708D02*
X145900Y33117D01*
X146200Y33350D01*
X146600Y33467D01*
X146950Y33350D01*
X147200Y33117D01*
X147400Y32767D01*
X147450Y32358D01*
X147400Y32008D01*
X147200Y31658D01*
X146900Y31367D01*
X146550Y31250D01*
X146150Y31367D01*
X145800Y31717D01*
X145600Y32242D01*
X145550Y32825D01*
X145650Y33583D01*
X145800Y33992D01*
X146050Y34400D01*
X146400Y34692D01*
X146750Y34750D01*
X147100Y34633D01*
X147350Y34342D01*
G01X141100Y79958D02*
X140800Y80133D01*
X140450Y80250D01*
X140050D01*
X139600Y80075D01*
X139250Y79783D01*
X139000Y79433D01*
X138800Y78850D01*
X138750Y78325D01*
X138850Y77800D01*
X139000Y77450D01*
X139300Y77100D01*
X139650Y76867D01*
X140000Y76750D01*
X140350D01*
X140700Y76867D01*
X141000Y77042D01*
X141250Y77275D01*
G01X142550Y79667D02*
X142850Y80017D01*
X143200Y80192D01*
X143600Y80250D01*
X144100Y80133D01*
X144450Y79842D01*
X144550Y79492D01*
X144500Y79142D01*
X144300Y78850D01*
X143300Y78267D01*
X142850Y77858D01*
X142550Y77275D01*
X142450Y76750D01*
X144550D01*
G01X146150Y77158D02*
X146500Y76867D01*
X146900Y76750D01*
X147300Y76867D01*
X147650Y77217D01*
X147900Y77742D01*
X148000Y78267D01*
Y78908D01*
X147900Y79433D01*
X147650Y79900D01*
X147350Y80133D01*
X147000Y80250D01*
X146600Y80133D01*
X146300Y79900D01*
X146100Y79550D01*
X146000Y79083D01*
X146100Y78675D01*
X146350Y78267D01*
X146650Y78033D01*
X147000Y77975D01*
X147400Y78092D01*
X147700Y78383D01*
X148000Y78908D01*
G01X141600Y84958D02*
X141300Y85133D01*
X140950Y85250D01*
X140550D01*
X140100Y85075D01*
X139750Y84783D01*
X139500Y84433D01*
X139300Y83850D01*
X139250Y83325D01*
X139350Y82800D01*
X139500Y82450D01*
X139800Y82100D01*
X140150Y81867D01*
X140500Y81750D01*
X140850D01*
X141200Y81867D01*
X141500Y82042D01*
X141750Y82275D01*
G01X143050Y84667D02*
X143350Y85017D01*
X143700Y85192D01*
X144100Y85250D01*
X144600Y85133D01*
X144950Y84842D01*
X145050Y84492D01*
X145000Y84142D01*
X144800Y83850D01*
X143800Y83267D01*
X143350Y82858D01*
X143050Y82275D01*
X142950Y81750D01*
X145050D01*
G01X147500D02*
X147850Y81808D01*
X148250Y81983D01*
X148500Y82275D01*
X148600Y82683D01*
X148500Y83092D01*
X148200Y83442D01*
X147750Y83617D01*
X147250D01*
X146950Y83733D01*
X146700Y84025D01*
X146600Y84433D01*
X146750Y84842D01*
X147100Y85133D01*
X147500Y85250D01*
X147900Y85133D01*
X148250Y84842D01*
X148400Y84433D01*
X148300Y84025D01*
X148050Y83733D01*
X147750Y83617D01*
X147250D01*
X146800Y83442D01*
X146500Y83092D01*
X146400Y82683D01*
X146500Y82275D01*
X146750Y81983D01*
X147150Y81808D01*
X147500Y81750D01*
G01X127542Y91350D02*
X127367Y91050D01*
X127250Y90700D01*
Y90300D01*
X127425Y89850D01*
X127717Y89500D01*
X128067Y89250D01*
X128650Y89050D01*
X129175Y89000D01*
X129700Y89100D01*
X130050Y89250D01*
X130400Y89550D01*
X130633Y89900D01*
X130750Y90250D01*
Y90600D01*
X130633Y90950D01*
X130458Y91250D01*
X130225Y91500D01*
G01X127833Y92800D02*
X127483Y93100D01*
X127308Y93450D01*
X127250Y93850D01*
X127367Y94350D01*
X127658Y94700D01*
X128008Y94800D01*
X128358Y94750D01*
X128650Y94550D01*
X129233Y93550D01*
X129642Y93100D01*
X130225Y92800D01*
X130750Y92700D01*
Y94800D01*
G01X134042Y103600D02*
X133867Y103300D01*
X133750Y102950D01*
Y102550D01*
X133925Y102100D01*
X134217Y101750D01*
X134567Y101500D01*
X135150Y101300D01*
X135675Y101250D01*
X136200Y101350D01*
X136550Y101500D01*
X136900Y101800D01*
X137133Y102150D01*
X137250Y102500D01*
Y102850D01*
X137133Y103200D01*
X136958Y103500D01*
X136725Y103750D01*
G01X134333Y105050D02*
X133983Y105350D01*
X133808Y105700D01*
X133750Y106100D01*
X133867Y106600D01*
X134158Y106950D01*
X134508Y107050D01*
X134858Y107000D01*
X135150Y106800D01*
X135733Y105800D01*
X136142Y105350D01*
X136725Y105050D01*
X137250Y104950D01*
Y107050D01*
G01Y109400D02*
X136492Y109500D01*
X135850Y109650D01*
X135267Y109850D01*
X134625Y110100D01*
X133750Y110500D01*
Y108500D01*
G01X139042Y103600D02*
X138867Y103300D01*
X138750Y102950D01*
Y102550D01*
X138925Y102100D01*
X139217Y101750D01*
X139567Y101500D01*
X140150Y101300D01*
X140675Y101250D01*
X141200Y101350D01*
X141550Y101500D01*
X141900Y101800D01*
X142133Y102150D01*
X142250Y102500D01*
Y102850D01*
X142133Y103200D01*
X141958Y103500D01*
X141725Y103750D01*
G01X139333Y105050D02*
X138983Y105350D01*
X138808Y105700D01*
X138750Y106100D01*
X138867Y106600D01*
X139158Y106950D01*
X139508Y107050D01*
X139858Y107000D01*
X140150Y106800D01*
X140733Y105800D01*
X141142Y105350D01*
X141725Y105050D01*
X142250Y104950D01*
Y107050D01*
G01X140792Y108550D02*
X140383Y108900D01*
X140150Y109200D01*
X140033Y109600D01*
X140150Y109950D01*
X140383Y110200D01*
X140733Y110400D01*
X141142Y110450D01*
X141492Y110400D01*
X141842Y110200D01*
X142133Y109900D01*
X142250Y109550D01*
X142133Y109150D01*
X141783Y108800D01*
X141258Y108600D01*
X140675Y108550D01*
X139917Y108650D01*
X139508Y108800D01*
X139100Y109050D01*
X138808Y109400D01*
X138750Y109750D01*
X138867Y110100D01*
X139158Y110350D01*
G01X122750Y107750D02*
Y111250D01*
X124000D01*
X124400Y111075D01*
X124650Y110842D01*
X124750Y110375D01*
X124650Y109908D01*
X124350Y109617D01*
X124000Y109442D01*
X122750D01*
G01X124000D02*
X124750Y107750D01*
G01X126300Y110667D02*
X126600Y111017D01*
X126950Y111192D01*
X127350Y111250D01*
X127850Y111133D01*
X128200Y110842D01*
X128300Y110492D01*
X128250Y110142D01*
X128050Y109850D01*
X127050Y109267D01*
X126600Y108858D01*
X126300Y108275D01*
X126200Y107750D01*
X128300D01*
G01X162750Y22251D02*
Y18751D01*
X164750D01*
G01X166150Y19276D02*
X166450Y18984D01*
X166800Y18809D01*
X167250Y18751D01*
X167700Y18868D01*
X168050Y19101D01*
X168300Y19509D01*
X168350Y19976D01*
X168250Y20443D01*
X168000Y20734D01*
X167650Y20968D01*
X167300Y21026D01*
X166950Y20968D01*
X166500Y20734D01*
X166650Y22251D01*
X168000D01*
G01X162100Y42458D02*
X161800Y42633D01*
X161450Y42750D01*
X161050D01*
X160600Y42575D01*
X160250Y42283D01*
X160000Y41933D01*
X159800Y41350D01*
X159750Y40825D01*
X159850Y40300D01*
X160000Y39950D01*
X160300Y39600D01*
X160650Y39367D01*
X161000Y39250D01*
X161350D01*
X161700Y39367D01*
X162000Y39542D01*
X162250Y39775D01*
G01X163550Y42167D02*
X163850Y42517D01*
X164200Y42692D01*
X164600Y42750D01*
X165100Y42633D01*
X165450Y42342D01*
X165550Y41992D01*
X165500Y41642D01*
X165300Y41350D01*
X164300Y40767D01*
X163850Y40358D01*
X163550Y39775D01*
X163450Y39250D01*
X165550D01*
G01X168000D02*
Y42750D01*
X167400Y42050D01*
G01Y39250D02*
X168600D01*
G01X156751Y47250D02*
Y43750D01*
X158751D01*
G01X160151Y44450D02*
X160451Y44042D01*
X160851Y43808D01*
X161301Y43750D01*
X161701Y43808D01*
X162101Y44100D01*
X162351Y44450D01*
X162401Y44800D01*
X162301Y45208D01*
X161951Y45500D01*
X161601Y45617D01*
X161151D01*
G01X161601D02*
X161901Y45792D01*
X162151Y46083D01*
X162251Y46433D01*
X162151Y46783D01*
X161901Y47075D01*
X161451Y47250D01*
X161001Y47192D01*
X160551Y46958D01*
G01X144500Y53250D02*
Y56750D01*
X145750D01*
X146150Y56575D01*
X146400Y56342D01*
X146500Y55875D01*
X146400Y55408D01*
X146100Y55117D01*
X145750Y54942D01*
X144500D01*
G01X145750D02*
X146500Y53250D01*
G01X149000D02*
Y56750D01*
X148400Y56050D01*
G01Y53250D02*
X149600D01*
G01X152500D02*
X152850Y53308D01*
X153250Y53483D01*
X153500Y53775D01*
X153600Y54183D01*
X153500Y54592D01*
X153200Y54942D01*
X152750Y55117D01*
X152250D01*
X151950Y55233D01*
X151700Y55525D01*
X151600Y55933D01*
X151750Y56342D01*
X152100Y56633D01*
X152500Y56750D01*
X152900Y56633D01*
X153250Y56342D01*
X153400Y55933D01*
X153300Y55525D01*
X153050Y55233D01*
X152750Y55117D01*
X152250D01*
X151800Y54942D01*
X151500Y54592D01*
X151400Y54183D01*
X151500Y53775D01*
X151750Y53483D01*
X152150Y53308D01*
X152500Y53250D01*
G01X162100Y75958D02*
X161800Y76133D01*
X161450Y76250D01*
X161050D01*
X160600Y76075D01*
X160250Y75783D01*
X160000Y75433D01*
X159800Y74850D01*
X159750Y74325D01*
X159850Y73800D01*
X160000Y73450D01*
X160300Y73100D01*
X160650Y72867D01*
X161000Y72750D01*
X161350D01*
X161700Y72867D01*
X162000Y73042D01*
X162250Y73275D01*
G01X163550Y75667D02*
X163850Y76017D01*
X164200Y76192D01*
X164600Y76250D01*
X165100Y76133D01*
X165450Y75842D01*
X165550Y75492D01*
X165500Y75142D01*
X165300Y74850D01*
X164300Y74267D01*
X163850Y73858D01*
X163550Y73275D01*
X163450Y72750D01*
X165550D01*
G01X168000Y76250D02*
X167600Y76133D01*
X167300Y75842D01*
X167100Y75492D01*
X166950Y75025D01*
X166900Y74500D01*
X166950Y73975D01*
X167100Y73508D01*
X167300Y73158D01*
X167600Y72867D01*
X168000Y72750D01*
X168400Y72867D01*
X168700Y73158D01*
X168900Y73508D01*
X169050Y73975D01*
X169100Y74500D01*
X169050Y75025D01*
X168900Y75492D01*
X168700Y75842D01*
X168400Y76133D01*
X168000Y76250D01*
G01X156250Y71251D02*
Y67751D01*
X158250D01*
G01X159800Y70668D02*
X160100Y71018D01*
X160450Y71193D01*
X160850Y71251D01*
X161350Y71134D01*
X161700Y70843D01*
X161800Y70493D01*
X161750Y70143D01*
X161550Y69851D01*
X160550Y69268D01*
X160100Y68859D01*
X159800Y68276D01*
X159700Y67751D01*
X161800D01*
G01X144500Y57750D02*
Y61250D01*
X145750D01*
X146150Y61075D01*
X146400Y60842D01*
X146500Y60375D01*
X146400Y59908D01*
X146100Y59617D01*
X145750Y59442D01*
X144500D01*
G01X145750D02*
X146500Y57750D01*
G01X149000D02*
Y61250D01*
X148400Y60550D01*
G01Y57750D02*
X149600D01*
G01X152400D02*
X152500Y58508D01*
X152650Y59150D01*
X152850Y59733D01*
X153100Y60375D01*
X153500Y61250D01*
X151500D01*
G01X163250Y97250D02*
Y93750D01*
X165250D01*
G01X168350D02*
Y97250D01*
X166500Y94742D01*
X169000D01*
G01X159042Y103600D02*
X158867Y103300D01*
X158750Y102950D01*
Y102550D01*
X158925Y102100D01*
X159217Y101750D01*
X159567Y101500D01*
X160150Y101300D01*
X160675Y101250D01*
X161200Y101350D01*
X161550Y101500D01*
X161900Y101800D01*
X162133Y102150D01*
X162250Y102500D01*
Y102850D01*
X162133Y103200D01*
X161958Y103500D01*
X161725Y103750D01*
G01X159333Y105050D02*
X158983Y105350D01*
X158808Y105700D01*
X158750Y106100D01*
X158867Y106600D01*
X159158Y106950D01*
X159508Y107050D01*
X159858Y107000D01*
X160150Y106800D01*
X160733Y105800D01*
X161142Y105350D01*
X161725Y105050D01*
X162250Y104950D01*
Y107050D01*
G01X161550Y108400D02*
X161958Y108700D01*
X162192Y109100D01*
X162250Y109550D01*
X162192Y109950D01*
X161900Y110350D01*
X161550Y110600D01*
X161200Y110650D01*
X160792Y110550D01*
X160500Y110200D01*
X160383Y109850D01*
Y109400D01*
G01Y109850D02*
X160208Y110150D01*
X159917Y110400D01*
X159567Y110500D01*
X159217Y110400D01*
X158925Y110150D01*
X158750Y109700D01*
X158808Y109250D01*
X159042Y108800D01*
G01X144042Y103600D02*
X143867Y103300D01*
X143750Y102950D01*
Y102550D01*
X143925Y102100D01*
X144217Y101750D01*
X144567Y101500D01*
X145150Y101300D01*
X145675Y101250D01*
X146200Y101350D01*
X146550Y101500D01*
X146900Y101800D01*
X147133Y102150D01*
X147250Y102500D01*
Y102850D01*
X147133Y103200D01*
X146958Y103500D01*
X146725Y103750D01*
G01X144333Y105050D02*
X143983Y105350D01*
X143808Y105700D01*
X143750Y106100D01*
X143867Y106600D01*
X144158Y106950D01*
X144508Y107050D01*
X144858Y107000D01*
X145150Y106800D01*
X145733Y105800D01*
X146142Y105350D01*
X146725Y105050D01*
X147250Y104950D01*
Y107050D01*
G01X146725Y108400D02*
X147017Y108700D01*
X147192Y109050D01*
X147250Y109500D01*
X147133Y109950D01*
X146900Y110300D01*
X146492Y110550D01*
X146025Y110600D01*
X145558Y110500D01*
X145267Y110250D01*
X145033Y109900D01*
X144975Y109550D01*
X145033Y109200D01*
X145267Y108750D01*
X143750Y108900D01*
Y110250D01*
G01X149042Y103600D02*
X148867Y103300D01*
X148750Y102950D01*
Y102550D01*
X148925Y102100D01*
X149217Y101750D01*
X149567Y101500D01*
X150150Y101300D01*
X150675Y101250D01*
X151200Y101350D01*
X151550Y101500D01*
X151900Y101800D01*
X152133Y102150D01*
X152250Y102500D01*
Y102850D01*
X152133Y103200D01*
X151958Y103500D01*
X151725Y103750D01*
G01X149333Y105050D02*
X148983Y105350D01*
X148808Y105700D01*
X148750Y106100D01*
X148867Y106600D01*
X149158Y106950D01*
X149508Y107050D01*
X149858Y107000D01*
X150150Y106800D01*
X150733Y105800D01*
X151142Y105350D01*
X151725Y105050D01*
X152250Y104950D01*
Y107050D01*
G01Y110100D02*
X148750D01*
X151258Y108250D01*
Y110750D01*
G01X157250Y101500D02*
X153750D01*
Y102750D01*
X153925Y103150D01*
X154158Y103400D01*
X154625Y103500D01*
X155092Y103400D01*
X155383Y103100D01*
X155558Y102750D01*
Y101500D01*
G01Y102750D02*
X157250Y103500D01*
G01Y106000D02*
X153750D01*
X154450Y105400D01*
G01X157250D02*
Y106600D01*
G01X156842Y108650D02*
X157133Y109000D01*
X157250Y109400D01*
X157133Y109800D01*
X156783Y110150D01*
X156258Y110400D01*
X155733Y110500D01*
X155092D01*
X154567Y110400D01*
X154100Y110150D01*
X153867Y109850D01*
X153750Y109500D01*
X153867Y109100D01*
X154100Y108800D01*
X154450Y108600D01*
X154917Y108500D01*
X155325Y108600D01*
X155733Y108850D01*
X155967Y109150D01*
X156025Y109500D01*
X155908Y109900D01*
X155617Y110200D01*
X155092Y110500D01*
G01X169833Y6500D02*
Y10500D01*
X171292D01*
X171758Y10300D01*
X172050Y10033D01*
X172167Y9500D01*
X172050Y8967D01*
X171700Y8633D01*
X171292Y8433D01*
X169833D01*
G01X171292D02*
X172167Y6500D01*
G01X173892D02*
Y10500D01*
X176108D01*
G01X175292Y8567D02*
X173892D01*
G01X179000Y6500D02*
X178533Y6567D01*
X178125Y6833D01*
X177775Y7233D01*
X177542Y7700D01*
X177425Y8233D01*
Y8767D01*
X177542Y9300D01*
X177775Y9767D01*
X178125Y10167D01*
X178533Y10433D01*
X179000Y10500D01*
X179467Y10433D01*
X179875Y10167D01*
X180225Y9767D01*
X180458Y9300D01*
X180575Y8767D01*
Y8233D01*
X180458Y7700D01*
X180225Y7233D01*
X179875Y6833D01*
X179467Y6567D01*
X179000Y6500D01*
G01X181717Y10500D02*
Y7633D01*
X181950Y7033D01*
X182417Y6633D01*
X183000Y6500D01*
X183583Y6633D01*
X184050Y7033D01*
X184283Y7633D01*
Y10500D01*
G01X187000D02*
Y6500D01*
G01X185658Y10500D02*
X188342D01*
G01X189542Y6500D02*
X191000Y10500D01*
X192458Y6500D01*
G01X191933Y7900D02*
X190067D01*
G01X194358Y7833D02*
X195758D01*
G01X195000Y8700D02*
Y6967D01*
G01X175600Y52458D02*
X175300Y52633D01*
X174950Y52750D01*
X174550D01*
X174100Y52575D01*
X173750Y52283D01*
X173500Y51933D01*
X173300Y51350D01*
X173250Y50825D01*
X173350Y50300D01*
X173500Y49950D01*
X173800Y49600D01*
X174150Y49367D01*
X174500Y49250D01*
X174850D01*
X175200Y49367D01*
X175500Y49542D01*
X175750Y49775D01*
G01X178000Y49250D02*
Y52750D01*
X177400Y52050D01*
G01Y49250D02*
X178600D01*
G01X181400D02*
X181500Y50008D01*
X181650Y50650D01*
X181850Y51233D01*
X182100Y51875D01*
X182500Y52750D01*
X180500D01*
G01X175600Y59458D02*
X175300Y59633D01*
X174950Y59750D01*
X174550D01*
X174100Y59575D01*
X173750Y59283D01*
X173500Y58933D01*
X173300Y58350D01*
X173250Y57825D01*
X173350Y57300D01*
X173500Y56950D01*
X173800Y56600D01*
X174150Y56367D01*
X174500Y56250D01*
X174850D01*
X175200Y56367D01*
X175500Y56542D01*
X175750Y56775D01*
G01X178000Y56250D02*
Y59750D01*
X177400Y59050D01*
G01Y56250D02*
X178600D01*
G01X181500D02*
X181850Y56308D01*
X182250Y56483D01*
X182500Y56775D01*
X182600Y57183D01*
X182500Y57592D01*
X182200Y57942D01*
X181750Y58117D01*
X181250D01*
X180950Y58233D01*
X180700Y58525D01*
X180600Y58933D01*
X180750Y59342D01*
X181100Y59633D01*
X181500Y59750D01*
X181900Y59633D01*
X182250Y59342D01*
X182400Y58933D01*
X182300Y58525D01*
X182050Y58233D01*
X181750Y58117D01*
X181250D01*
X180800Y57942D01*
X180500Y57592D01*
X180400Y57183D01*
X180500Y56775D01*
X180750Y56483D01*
X181150Y56308D01*
X181500Y56250D01*
G01X175100Y65958D02*
X174800Y66133D01*
X174450Y66250D01*
X174050D01*
X173600Y66075D01*
X173250Y65783D01*
X173000Y65433D01*
X172800Y64850D01*
X172750Y64325D01*
X172850Y63800D01*
X173000Y63450D01*
X173300Y63100D01*
X173650Y62867D01*
X174000Y62750D01*
X174350D01*
X174700Y62867D01*
X175000Y63042D01*
X175250Y63275D01*
G01X177500Y62750D02*
Y66250D01*
X176900Y65550D01*
G01Y62750D02*
X178100D01*
G01X180150Y63158D02*
X180500Y62867D01*
X180900Y62750D01*
X181300Y62867D01*
X181650Y63217D01*
X181900Y63742D01*
X182000Y64267D01*
Y64908D01*
X181900Y65433D01*
X181650Y65900D01*
X181350Y66133D01*
X181000Y66250D01*
X180600Y66133D01*
X180300Y65900D01*
X180100Y65550D01*
X180000Y65083D01*
X180100Y64675D01*
X180350Y64267D01*
X180650Y64033D01*
X181000Y63975D01*
X181400Y64092D01*
X181700Y64383D01*
X182000Y64908D01*
G01X170333Y104500D02*
Y108500D01*
X171792D01*
X172258Y108300D01*
X172550Y108033D01*
X172667Y107500D01*
X172550Y106967D01*
X172200Y106633D01*
X171792Y106433D01*
X170333D01*
G01X171792D02*
X172667Y104500D01*
G01X174392D02*
Y108500D01*
X176608D01*
G01X175792Y106567D02*
X174392D01*
G01X179500Y104500D02*
X179033Y104567D01*
X178625Y104833D01*
X178275Y105233D01*
X178042Y105700D01*
X177925Y106233D01*
Y106767D01*
X178042Y107300D01*
X178275Y107767D01*
X178625Y108167D01*
X179033Y108433D01*
X179500Y108500D01*
X179967Y108433D01*
X180375Y108167D01*
X180725Y107767D01*
X180958Y107300D01*
X181075Y106767D01*
Y106233D01*
X180958Y105700D01*
X180725Y105233D01*
X180375Y104833D01*
X179967Y104567D01*
X179500Y104500D01*
G01X182217Y108500D02*
Y105633D01*
X182450Y105033D01*
X182917Y104633D01*
X183500Y104500D01*
X184083Y104633D01*
X184550Y105033D01*
X184783Y105633D01*
Y108500D01*
G01X187500D02*
Y104500D01*
G01X186158Y108500D02*
X188842D01*
G01X190042Y104500D02*
X191500Y108500D01*
X192958Y104500D01*
G01X192433Y105900D02*
X190567D01*
G01X194742Y105833D02*
X196258D01*
G01X164042Y103600D02*
X163867Y103300D01*
X163750Y102950D01*
Y102550D01*
X163925Y102100D01*
X164217Y101750D01*
X164567Y101500D01*
X165150Y101300D01*
X165675Y101250D01*
X166200Y101350D01*
X166550Y101500D01*
X166900Y101800D01*
X167133Y102150D01*
X167250Y102500D01*
Y102850D01*
X167133Y103200D01*
X166958Y103500D01*
X166725Y103750D01*
G01X164333Y105050D02*
X163983Y105350D01*
X163808Y105700D01*
X163750Y106100D01*
X163867Y106600D01*
X164158Y106950D01*
X164508Y107050D01*
X164858Y107000D01*
X165150Y106800D01*
X165733Y105800D01*
X166142Y105350D01*
X166725Y105050D01*
X167250Y104950D01*
Y107050D01*
G01X164333Y108550D02*
X163983Y108850D01*
X163808Y109200D01*
X163750Y109600D01*
X163867Y110100D01*
X164158Y110450D01*
X164508Y110550D01*
X164858Y110500D01*
X165150Y110300D01*
X165733Y109300D01*
X166142Y108850D01*
X166725Y108550D01*
X167250Y108450D01*
Y110550D01*
G01X204150Y42117D02*
X204350Y42292D01*
X204500Y42583D01*
X204600Y42992D01*
X204500Y43342D01*
X204300Y43575D01*
X203950Y43750D01*
X202600D01*
Y40250D01*
X204250D01*
X204600Y40483D01*
X204800Y40833D01*
X204900Y41242D01*
X204800Y41650D01*
X204500Y42000D01*
X204150Y42117D01*
X202600D01*
G01X206100Y40250D02*
Y43750D01*
X208400Y40250D01*
Y43750D01*
G01X211850Y43458D02*
X211550Y43633D01*
X211200Y43750D01*
X210800D01*
X210350Y43575D01*
X210000Y43283D01*
X209750Y42933D01*
X209550Y42350D01*
X209500Y41825D01*
X209600Y41300D01*
X209750Y40950D01*
X210050Y40600D01*
X210400Y40367D01*
X210750Y40250D01*
X211100D01*
X211450Y40367D01*
X211750Y40542D01*
X212000Y40775D01*
G01X214250Y40250D02*
Y43750D01*
X213650Y43050D01*
G01Y40250D02*
X214850D01*
G01X204650Y102117D02*
X204850Y102292D01*
X205000Y102583D01*
X205100Y102992D01*
X205000Y103342D01*
X204800Y103575D01*
X204450Y103750D01*
X203100D01*
Y100250D01*
X204750D01*
X205100Y100483D01*
X205300Y100833D01*
X205400Y101242D01*
X205300Y101650D01*
X205000Y102000D01*
X204650Y102117D01*
X203100D01*
G01X206600Y100250D02*
Y103750D01*
X208900Y100250D01*
Y103750D01*
G01X212350Y103458D02*
X212050Y103633D01*
X211700Y103750D01*
X211300D01*
X210850Y103575D01*
X210500Y103283D01*
X210250Y102933D01*
X210050Y102350D01*
X210000Y101825D01*
X210100Y101300D01*
X210250Y100950D01*
X210550Y100600D01*
X210900Y100367D01*
X211250Y100250D01*
X211600D01*
X211950Y100367D01*
X212250Y100542D01*
X212500Y100775D01*
G01X213800Y103167D02*
X214100Y103517D01*
X214450Y103692D01*
X214850Y103750D01*
X215350Y103633D01*
X215700Y103342D01*
X215800Y102992D01*
X215750Y102642D01*
X215550Y102350D01*
X214550Y101767D01*
X214100Y101358D01*
X213800Y100775D01*
X213700Y100250D01*
X215800D01*
G54D11*
G01X33000Y60000D02*
Y10000D01*
X13000D01*
Y60000D01*
X33000D01*
G01X31000Y89000D02*
X10000D01*
Y99000D01*
X31000D01*
Y89000D01*
G01X19710Y90850D02*
Y96760D01*
G01X21290Y90850D02*
Y96760D01*
G01X20000Y79000D02*
X18000D01*
G01X19000Y78000D02*
Y80000D01*
G01X12500Y81000D02*
X7500D01*
Y87000D01*
X12500D01*
G01X14500Y81000D02*
X19500D01*
Y87000D01*
X14500D01*
G01X33500Y81500D02*
X21500D01*
Y86500D01*
X33500D01*
Y81500D01*
G01X37580Y100890D02*
Y136910D01*
X4580D01*
Y100890D01*
X37580D01*
G01Y114890D02*
X4580D01*
G01X39500Y9000D02*
X51500D01*
Y4000D01*
X39500D01*
Y9000D01*
G01Y27000D02*
X51500D01*
Y22000D01*
X39500D01*
Y27000D01*
G01X51500Y10000D02*
X39500D01*
Y15000D01*
X51500D01*
Y10000D01*
G01X39500Y33000D02*
X51500D01*
Y28000D01*
X39500D01*
Y33000D01*
G01X51500Y16000D02*
X39500D01*
Y21000D01*
X51500D01*
Y16000D01*
G01X39500Y58000D02*
X51500D01*
Y53000D01*
X39500D01*
Y58000D01*
G01Y51000D02*
X51500D01*
Y46000D01*
X39500D01*
Y51000D01*
G01Y45000D02*
X51500D01*
Y40000D01*
X39500D01*
Y45000D01*
G01Y39000D02*
X51500D01*
Y34000D01*
X39500D01*
Y39000D01*
G01X55000Y59500D02*
X38500D01*
Y73000D01*
X55000D01*
Y59500D01*
G01X32500Y92000D02*
Y95000D01*
G01X33500Y93500D02*
X31500D01*
G01X57000Y53000D02*
X52500D01*
Y58000D01*
G01X59000D02*
X63500D01*
Y53000D01*
X59000D01*
G01X64500Y46000D02*
Y58000D01*
X69500D01*
Y46000D01*
X64500D01*
G01X52500Y58000D02*
X57000D01*
G01X57600Y56600D02*
Y54300D01*
G01X58300Y56600D02*
Y54300D01*
G01X57500Y71000D02*
X62000D01*
G01X62600Y69600D02*
Y67300D01*
G01X63300Y69600D02*
Y67300D01*
G01X62000Y66000D02*
X57500D01*
Y71000D01*
G01X64000D02*
X68500D01*
Y66000D01*
X64000D01*
G01X57500Y65000D02*
X62000D01*
G01X62600Y63600D02*
Y61300D01*
G01X63300Y63600D02*
Y61300D01*
G01X62000Y60000D02*
X57500D01*
Y65000D01*
G01X64000D02*
X68500D01*
Y60000D01*
X64000D01*
G01X67500Y72500D02*
X69500D01*
G01X68500Y73500D02*
Y71500D01*
G01X75000Y72000D02*
X70000D01*
Y66000D01*
X75000D01*
G01X62500Y72000D02*
Y83000D01*
X57500D01*
Y72000D01*
X62500D01*
G01X70000Y65000D02*
X82000D01*
Y60000D01*
X70000D01*
Y65000D01*
G01Y97500D02*
Y93000D01*
G01X68600Y92400D02*
X66300D01*
G01X68600Y91700D02*
X66300D01*
G01X65000Y93000D02*
Y97500D01*
X70000D01*
G01Y91000D02*
Y86500D01*
X65000D01*
Y91000D01*
G01X52500Y92500D02*
X63500D01*
Y97500D01*
X52500D01*
Y92500D01*
G01X65000Y99500D02*
Y111500D01*
X70000D01*
Y99500D01*
X65000D01*
G01X83500Y22000D02*
Y26500D01*
G01X84900Y27100D02*
X87200D01*
G01X84900Y27800D02*
X87200D01*
G01X88500Y26500D02*
Y22000D01*
X83500D01*
G01Y28500D02*
Y33000D01*
X88500D01*
Y28500D01*
G01X89500Y33000D02*
X101500D01*
Y28000D01*
X89500D01*
Y33000D01*
G01X87500Y51500D02*
X92000D01*
G01X92600Y50100D02*
Y47800D01*
G01X93300Y50100D02*
X93301Y47800D01*
G01X92000Y46500D02*
X87500D01*
Y51500D01*
G01Y45500D02*
X92000D01*
G01X92600Y44100D02*
Y41800D01*
G01X93300Y44100D02*
X93301Y41800D01*
G01X92000Y40500D02*
X87500D01*
Y45500D01*
G01X75000Y53000D02*
X70500D01*
Y58000D01*
G01X77000D02*
X81500D01*
Y53000D01*
X77000D01*
G01X90000Y78000D02*
Y73500D01*
X85000D01*
Y78000D01*
G01X93400Y58900D02*
Y61200D01*
G01X92700Y58900D02*
Y61200D01*
G01X92000Y57500D02*
X87500D01*
Y62500D01*
X92000D01*
G01X96000Y78000D02*
Y73500D01*
X91000D01*
Y78000D01*
G01X93400Y64900D02*
Y67200D01*
G01X92700Y64900D02*
Y67200D01*
G01X92000Y63500D02*
X87500D01*
Y68500D01*
X92000D01*
G01X70500Y58000D02*
X75000D01*
G01X75600Y56600D02*
Y54300D01*
G01X76300Y56600D02*
Y54300D01*
G01X77000Y72000D02*
X82000D01*
Y66000D01*
X77000D01*
G01X90000Y84500D02*
Y80000D01*
G01X88600Y79400D02*
X86300D01*
G01X88600Y78700D02*
X86300D01*
G01X85000Y80000D02*
Y84500D01*
X90000D01*
G01X94600Y79400D02*
X92300D01*
G01X94600Y78700D02*
X92300D01*
G01X91000Y80000D02*
Y84500D01*
X96000D01*
G01X89000Y98000D02*
Y93500D01*
G01X87600Y92900D02*
X85300D01*
G01X87600Y92200D02*
X85300D01*
G01X84000Y93500D02*
Y98000D01*
X89000D01*
G01Y91500D02*
Y87000D01*
X84000D01*
Y91500D01*
G01X71000Y111500D02*
X83000D01*
Y106500D01*
X71000D01*
Y111500D01*
G01X102500Y22000D02*
Y26500D01*
G01X103900Y27100D02*
X106200D01*
G01X103900Y27800D02*
X106200D01*
G01X107500Y26500D02*
Y22000D01*
X102500D01*
G01Y28500D02*
Y33000D01*
X107500D01*
Y28500D01*
G01X114500Y21500D02*
Y33500D01*
X119500D01*
Y21500D01*
X114500D01*
G01X102500Y8500D02*
Y20500D01*
X107500D01*
Y8500D01*
X102500D01*
G01X113500Y33500D02*
Y21500D01*
X108500D01*
Y33500D01*
X113500D01*
G01X108160Y49130D02*
Y47160D01*
X110130D01*
G01X94000Y51500D02*
X98500D01*
Y46500D01*
X94000D01*
G01Y45500D02*
X98500D01*
Y40500D01*
X94000D01*
G01X110130Y66840D02*
X108160D01*
G01D02*
Y64870D01*
G01X120000Y78000D02*
Y73500D01*
X115000D01*
Y78000D01*
G01X102000D02*
Y73500D01*
X97000D01*
Y78000D01*
G01X98500Y57500D02*
X94000D01*
G01Y62500D02*
X98500D01*
Y57500D01*
G01X108000Y78000D02*
Y73500D01*
X103000D01*
Y78000D01*
G01X98500Y63500D02*
X94000D01*
G01Y68500D02*
X98500D01*
Y63500D01*
G01X109000Y73000D02*
Y85000D01*
X114000D01*
Y73000D01*
X109000D01*
G01X118600Y79400D02*
X116300D01*
G01X118600Y78700D02*
X116300D01*
G01X115000Y80000D02*
Y84500D01*
X120000D01*
G01X102000D02*
Y80000D01*
G01X100600Y79400D02*
X98300D01*
G01X100600Y78700D02*
X98300D01*
G01X97000Y80000D02*
Y84500D01*
X102000D01*
G01X108000D02*
Y80000D01*
G01X106600Y79400D02*
X104300D01*
G01X106600Y78700D02*
X104300D01*
G01X103000Y80000D02*
Y84500D01*
X108000D01*
G01X96000D02*
Y80000D01*
G01X107500Y98000D02*
Y93500D01*
G01X106100Y92900D02*
X103800D01*
G01X106100Y92200D02*
X103800D01*
G01X102500Y93500D02*
Y98000D01*
X107500D01*
G01Y91500D02*
Y87000D01*
X102500D01*
Y91500D01*
G01Y100000D02*
Y112000D01*
X107500D01*
Y100000D01*
X102500D01*
G01X108500Y112000D02*
X120500D01*
Y107000D01*
X108500D01*
Y112000D01*
G01X120500Y22000D02*
Y26500D01*
G01X121900Y27100D02*
X124200D01*
G01X121900Y27800D02*
X124200D01*
G01X125500Y26500D02*
Y22000D01*
X120500D01*
G01Y28500D02*
Y33000D01*
X125500D01*
Y28500D01*
G01X126500Y22000D02*
Y26500D01*
G01X127900Y27100D02*
X130200D01*
G01X127900Y27800D02*
X130200Y27801D01*
G01X131500Y26500D02*
Y22000D01*
X126500D01*
G01Y28500D02*
Y33000D01*
X131500D01*
Y28500D01*
G01X132500Y22000D02*
Y26500D01*
G01X133900Y27100D02*
X136200D01*
G01X133900Y27800D02*
X136200Y27801D01*
G01X137500Y26500D02*
Y22000D01*
X132500D01*
G01Y28500D02*
Y33000D01*
X137500D01*
Y28500D01*
G01X125870Y47160D02*
X127840D01*
Y49130D01*
G01X138121Y39843D02*
X134939Y43025D01*
G01X135505Y44439D02*
X137131Y46066D01*
G01X135010Y44934D02*
X136636Y46561D01*
G01X138475D02*
X141657Y43379D01*
X138121Y39843D01*
G01X133525Y44439D02*
X130343Y47621D01*
X133879Y51157D01*
X137061Y47975D01*
G01X134121Y35843D02*
X130939Y39025D01*
G01X131505Y40439D02*
X133131Y42066D01*
G01X131010Y40934D02*
X132636Y42561D01*
G01X134475D02*
X137657Y39379D01*
X134121Y35843D01*
G01X129525Y40439D02*
X126343Y43621D01*
X129879Y47157D01*
X133061Y43975D01*
G01X139025Y57510D02*
X147510Y49025D01*
X143975Y45490D01*
X135490Y53975D01*
X139025Y57510D01*
G01X127840Y64870D02*
Y66840D01*
X125870D01*
G01X141657Y72621D02*
X138475Y69439D01*
G01X137061Y70005D02*
X135434Y71631D01*
G01X136566Y69510D02*
X134939Y71136D01*
G01Y72975D02*
X138121Y76157D01*
X141657Y72621D01*
G01X137061Y68025D02*
X133879Y64843D01*
X130343Y68379D01*
X133525Y71561D01*
G01X126000Y78000D02*
Y73500D01*
X121000D01*
Y78000D01*
G01X137657Y77121D02*
X134475Y73939D01*
G01X133061Y74505D02*
X131434Y76131D01*
G01X132566Y74010D02*
X130939Y75636D01*
G01X133061Y72525D02*
X129879Y69343D01*
X126343Y72879D01*
X129525Y76061D01*
G01X135490Y61525D02*
X143975Y70010D01*
X147510Y66475D01*
X139025Y57990D01*
X135490Y61525D01*
G01X120000Y84500D02*
Y80000D01*
G01X126000Y84500D02*
Y80000D01*
G01X124600Y79400D02*
X122300D01*
G01X124600Y78700D02*
X122300D01*
G01X121000Y80000D02*
Y84500D01*
X126000D01*
G01X130939Y77475D02*
X134121Y80657D01*
X137657Y77121D01*
G01X126000Y97500D02*
Y93000D01*
G01X124600Y92400D02*
X122300D01*
G01X124600Y91700D02*
X122300D01*
G01X121000Y93000D02*
Y97500D01*
X126000D01*
G01Y91000D02*
Y86500D01*
X121000D01*
Y91000D01*
G01X157843Y32121D02*
X165621Y24343D01*
X169157Y27879D01*
X161379Y35657D01*
X157843Y32121D01*
G01X162700Y49900D02*
Y52200D01*
G01X162000Y48500D02*
X157500D01*
Y53500D01*
X162000D01*
G01X157121Y32843D02*
X153939Y36025D01*
G01X154505Y37439D02*
X156132Y39066D01*
G01X154010Y37934D02*
X155636Y39561D01*
G01X157475D02*
X160657Y36379D01*
X157121Y32843D01*
G01X152525Y37439D02*
X149343Y40621D01*
X152879Y44157D01*
X156061Y40975D01*
G01X148379Y41343D02*
X156157Y49121D01*
X152621Y52657D01*
X144843Y44879D01*
X148379Y41343D01*
G01X162700Y56400D02*
Y58700D01*
G01X162000Y55000D02*
X157500D01*
Y60000D01*
X162000D01*
G01X162700Y62900D02*
Y65200D01*
G01X162000Y61500D02*
X157500D01*
Y66500D01*
X162000D01*
G01X160157Y79121D02*
X156975Y75939D01*
G01X155066Y76010D02*
X153439Y77636D01*
G01X155561Y74525D02*
X152379Y71343D01*
X148843Y74879D01*
X152025Y78061D01*
G01X144843Y70621D02*
X152621Y62843D01*
X156157Y66379D01*
X148379Y74157D01*
X144843Y70621D01*
G01X155561Y76505D02*
X153934Y78132D01*
G01X153439Y79475D02*
X156621Y82657D01*
X160157Y79121D01*
G01X160879Y79843D02*
X168657Y87621D01*
X165121Y91157D01*
X157343Y83379D01*
X160879Y79843D01*
G01X194000Y13000D02*
X174000D01*
Y43000D01*
X194000D01*
Y13000D01*
G01X168500Y48500D02*
X164000D01*
G01X163400Y49900D02*
Y52200D01*
G01X164000Y53500D02*
X168500D01*
Y48500D01*
G01Y55000D02*
X164000D01*
G01X163400Y56400D02*
Y58700D01*
G01X164000Y60000D02*
X168500D01*
Y55000D01*
G01Y61500D02*
X164000D01*
G01X163400Y62900D02*
Y65200D01*
G01X164000Y66500D02*
X168500D01*
Y61500D01*
G01X194000Y72500D02*
X174000D01*
Y102500D01*
X194000D01*
Y72500D01*
G01X214000Y18000D02*
Y38000D01*
X209000D01*
Y18000D01*
X204000D01*
Y38000D01*
G01X194000Y18000D02*
X219000D01*
Y38000D01*
X194000D01*
G01X214000Y77500D02*
Y97500D01*
X209000D01*
Y77500D01*
X204000D01*
Y97500D01*
G01X194000Y77500D02*
X219000D01*
Y97500D01*
X194000D01*
G54D12*
G01X0Y0D02*
X196850D01*
Y118110D01*
X0D01*
Y0D01*
G54D13*
G01X33000Y29500D02*
X23000D01*
Y10000D01*
G01X63500Y59000D02*
X38000D01*
Y69000D01*
X34500Y72500D01*
X10000D01*
Y67000D01*
X31000D01*
X33000Y65000D01*
Y60000D01*
X34000Y59000D01*
X36000D01*
X38000Y57000D01*
Y53000D01*
X39000Y52000D01*
X63000D01*
G01X63500Y73500D02*
Y85000D01*
X80000D01*
X83500Y81500D01*
Y60000D01*
X82500Y59000D01*
X70000D01*
G01X127000Y76000D02*
X150000Y99000D01*
X168000D01*
X169000Y100000D01*
Y112000D01*
X131500D01*
Y89000D01*
X127000Y84500D01*
G54D14*
G01X55569Y75799D02*
G03I-1419J0D01*
G01X72080Y95500D02*
Y94670D01*
X81920D01*
G01D02*
Y95500D01*
G01Y102500D02*
Y103330D01*
X72080D01*
Y102500D01*
G01X110910Y44400D02*
X105400D01*
Y49910D01*
G01X109580Y96000D02*
Y95170D01*
X119420D01*
G01Y103000D02*
Y103830D01*
X109580D01*
Y103000D01*
G01X119420Y95170D02*
Y96000D01*
M02*
