G04 ================== begin FILE IDENTIFICATION RECORD ==================*
G04 Layout Name:  G:/Cadence Allegro/My_Prj/ADF4351/ADF4351_PCB_Finish.brd*
G04 Film Name:    06_SOLD_TOP*
G04 File Format:  Gerber RS274X*
G04 File Origin:  Cadence Allegro 16.6-2015-S108*
G04 Origin Date:  Tue Feb 19 09:10:30 2019*
G04 *
G04 Layer:  BOARD GEOMETRY/OUTLINE*
G04 Layer:  PIN/SOLDERMASK_TOP*
G04 Layer:  PACKAGE GEOMETRY/SOLDERMASK_TOP*
G04 Layer:  BOARD GEOMETRY/SOLDERMASK_TOP*
G04 *
G04 Offset:    (0.00 0.00)*
G04 Mirror:    No*
G04 Mode:      Positive*
G04 Rotation:  0*
G04 FullContactRelief:  No*
G04 UndefLineWidth:     6.00*
G04 ================== end FILE IDENTIFICATION RECORD ====================*
%FSLAX25Y25*MOIN*%
%IR0*IPPOS*OFA0.00000B0.00000*MIA0B0*SFA1.00000B1.00000*%
%AMMACRO27*
21,1,.04,.035,0.0,0.0,135.*%
%ADD27MACRO27*%
%AMMACRO26*
21,1,.039,.036,0.0,0.0,135.*%
%ADD26MACRO26*%
%ADD10C,.0709*%
%AMMACRO30*
21,1,.0374,.0374,0.0,0.0,45.*%
%ADD30MACRO30*%
%ADD19R,.0374X.0374*%
%ADD15C,.0787*%
%ADD11R,.0709X.0709*%
%ADD31R,.1657X.0657*%
%AMMACRO29*
21,1,.04,.035,0.0,0.0,45.*%
%ADD29MACRO29*%
%ADD17R,.035X.04*%
%ADD14R,.04X.035*%
%ADD25O,.0138X.0433*%
%ADD24O,.0433X.0138*%
%ADD22R,.0335X.0512*%
%AMMACRO28*
21,1,.039,.036,0.0,0.0,45.*%
%ADD28MACRO28*%
%ADD20R,.036X.039*%
%ADD16R,.063X.0551*%
%ADD18R,.039X.036*%
%ADD23R,.126X.126*%
%ADD13R,.0445X.0453*%
%ADD21R,.0276X.0138*%
%ADD12R,.0591X.0787*%
%ADD32C,.006*%
G75*
%LPD*%
G75*
G54D10*
X18000Y15000D03*
Y25000D03*
Y35000D03*
Y45000D03*
X28000Y15000D03*
Y25000D03*
Y35000D03*
Y45000D03*
Y55000D03*
G54D20*
X67500Y95000D03*
Y89000D03*
X86000Y24500D03*
Y30500D03*
X87500Y76000D03*
X93500D03*
X87500Y82000D03*
X93500D03*
X86500Y95500D03*
Y89500D03*
X105000Y24500D03*
Y30500D03*
X117500Y76000D03*
X99500D03*
X105500D03*
X117500Y82000D03*
X99500D03*
X105500D03*
X105000Y95500D03*
Y89500D03*
X123000Y24500D03*
Y30500D03*
X129000Y24500D03*
Y30500D03*
X135000Y24500D03*
Y30500D03*
X123500Y76000D03*
Y82000D03*
Y95000D03*
Y89000D03*
G54D11*
X18000Y55000D03*
G54D12*
X14400Y94000D03*
X26600D03*
G54D21*
X81530Y96440D03*
Y99000D03*
X72470Y96440D03*
Y99000D03*
X81530Y101560D03*
X72470D03*
X109970Y96940D03*
Y99500D03*
Y102060D03*
X119030Y96940D03*
Y99500D03*
Y102060D03*
G54D30*
X161357Y32143D03*
X152643Y49143D03*
X148357Y44857D03*
X152643Y66357D03*
X148357Y70643D03*
X165143Y87643D03*
X160857Y83357D03*
X165643Y27857D03*
G54D13*
X10390Y84000D03*
X16610D03*
X79110Y69000D03*
X72890D03*
G54D22*
X77000Y99000D03*
X114500Y99500D03*
G54D31*
X184000Y28000D03*
Y18000D03*
Y38000D03*
Y77500D03*
Y97500D03*
Y87500D03*
G54D32*
G01X0Y0D02*
X196850D01*
Y118110D01*
X0D01*
Y0D01*
G54D23*
X118000Y57000D03*
G54D14*
X24350Y84000D03*
X48650Y6500D03*
X42350D03*
X48650Y24500D03*
X42350D03*
Y12500D03*
X48650D03*
Y30500D03*
X42350D03*
Y18500D03*
X48650D03*
Y48500D03*
X42350D03*
X48650Y42500D03*
X42350D03*
X48650Y36500D03*
X42350D03*
X48650Y55500D03*
X42350D03*
X30650Y84000D03*
X92350Y30500D03*
X79150Y62500D03*
X72850D03*
X80150Y109000D03*
X73850D03*
X98650Y30500D03*
X117650Y109500D03*
X111350D03*
G54D24*
X108160Y50110D03*
Y52080D03*
Y54050D03*
Y56020D03*
Y57980D03*
Y59950D03*
Y61920D03*
Y63890D03*
X127840Y52080D03*
Y50110D03*
Y63890D03*
Y61920D03*
Y59950D03*
Y57980D03*
Y56020D03*
Y54050D03*
G54D15*
X13350Y105610D03*
X28350D03*
G54D16*
X42340Y63200D03*
Y69500D03*
X51000Y63200D03*
Y69500D03*
G54D25*
X117020Y47160D03*
X115050D03*
X113080D03*
X111110D03*
Y66840D03*
X113080D03*
X115050D03*
X117020D03*
X124890Y47160D03*
X122920D03*
X120950D03*
X118980D03*
Y66840D03*
X120950D03*
X122920D03*
X124890D03*
G54D17*
X67000Y48850D03*
Y55150D03*
X67500Y108650D03*
Y102350D03*
X117000Y30650D03*
Y24350D03*
X105000Y17650D03*
Y11350D03*
X111000Y24350D03*
Y30650D03*
X111500Y75850D03*
Y82150D03*
X105000Y109150D03*
Y102850D03*
G54D26*
X138121Y43379D03*
X133879Y47621D03*
X134121Y39379D03*
X129879Y43621D03*
X157121Y36379D03*
X152879Y40621D03*
G54D18*
X55000Y55500D03*
X61000D03*
X60000Y68500D03*
X66000D03*
X60000Y62500D03*
X66000D03*
X90000Y49000D03*
Y43000D03*
Y60000D03*
Y66000D03*
X73000Y55500D03*
X79000D03*
X96000Y49000D03*
Y43000D03*
Y60000D03*
Y66000D03*
X160000Y51000D03*
Y57500D03*
Y64000D03*
X166000Y51000D03*
Y57500D03*
Y64000D03*
G54D27*
X139273Y53727D03*
X143727Y49273D03*
G54D28*
X138121Y72621D03*
X133879Y68379D03*
X134121Y77121D03*
X129879Y72879D03*
X152379Y74879D03*
X156621Y79121D03*
G54D19*
X60000Y74470D03*
X61030Y95000D03*
X54970D03*
X60000Y80530D03*
G54D29*
X139273Y61773D03*
X143727Y66227D03*
M02*
